<svg width="353" height="382" viewBox="0 0 353 382" fill="none" xmlns="http://www.w3.org/2000/svg">
<path d="M183.666 228.73L213.679 331.517H229.186L195.354 230.61L253.561 327.756L279.816 299.606L202.872 224.969L320.167 281.74L343.132 250.768L205.28 217.27L205.222 203.87L348.301 222.618V188.826L210.39 193.057L195.237 184.477L344.542 146.1L335.144 102.905L195.354 169.138L181.316 160.675L321.576 73.344L291.563 54.1265L188.13 146.747L175.149 142.927L252.621 45.6637L216.029 35.7905L170.92 125.884L175.208 28.3268H125.518L158.644 139.283L88.9254 45.6637L73.4192 73.8141L139.849 152.447L45.285 103.845L41.056 135.346L149.423 169.138V179.893L8.2229 157.854L12.4519 201.05L146.604 194.938L20.9098 241.365L28.839 273.277L156.471 203.87L162.58 213.685L47.1645 297.255L79.5277 312.711L146.604 234.372L168.629 256.88L146.604 339.04L184.605 346.033L183.666 228.73Z" fill="#F8E28F"/>
<path d="M14.0966 252.708C14.0966 252.708 12.3345 274.452 46.9884 269.163C81.6423 263.874 92.802 266.812 103.962 272.102C115.122 277.391 126.281 277.391 126.281 277.391L203.225 141.634L110.423 118.126L64.609 124.591L14.0966 252.708Z" fill="#441616"/>
<path d="M222.842 267.224L187.954 265.108L186.191 282.092C186.191 282.092 186.191 305.012 182.08 322.643C181.669 324.347 176.853 327.638 173.857 333.809C170.862 339.98 169.158 352.028 169.158 352.028L160.348 356.142L156.824 374.948L172.682 364.957L183.842 354.966L197.939 332.046C197.939 332.046 215.559 289.145 218.496 279.154C219.847 274.452 221.491 270.338 222.842 267.224Z" fill="url(#paint0_linear)"/>
<path d="M233.18 183.36C233.18 183.36 244.339 186.886 261.96 194.526C279.581 202.166 309.536 204.517 309.536 204.517C309.536 204.517 325.982 163.966 327.744 153.388C329.506 142.809 327.744 118.714 327.744 118.714L297.789 115.188L288.978 148.686C288.978 148.686 278.993 135.757 264.309 130.468C249.626 125.178 230.243 116.363 230.243 116.363L233.18 183.36Z" fill="url(#paint1_linear)"/>
<path opacity="0.4" d="M325.629 128.411C323.162 132.113 321.635 136.345 320.461 140.635C317.994 149.685 317.583 164.73 315.997 174.016C314.235 184.183 308.655 201.578 308.361 201.637C300.079 203.224 271.828 193.586 266.072 189.296C260.785 185.358 249.038 175.661 244.339 171.077C237.585 164.436 240.169 156.091 231.829 152.212L233.18 183.36C233.18 183.36 244.339 186.886 261.96 194.526C279.581 202.166 309.536 204.517 309.536 204.517C309.536 204.517 325.982 163.966 327.744 153.388C328.919 146.335 328.507 133.23 328.155 125.296C327.215 126.295 326.393 127.294 325.629 128.411Z" fill="#073C70"/>
<path d="M244.339 196.877C244.339 196.877 246.571 182.831 244.574 171.077C243.047 162.144 237.291 131.996 234.589 117.891C226.366 116.422 221.433 116.422 221.433 116.422L179.73 124.65L106.898 127C106.898 127 79.704 127.059 71.8334 129.939C63.9629 132.818 59.0291 139.93 54.7414 145.219C50.5125 150.449 2.93677 218.622 2.93677 218.622L37.0033 241.542L72.8319 235.077C72.8319 235.077 69.8952 222.148 68.1331 219.797C66.371 217.446 55.7987 213.92 55.7987 213.92C55.7987 213.92 67.5458 208.043 77.5308 200.991C87.5158 193.938 96.9135 184.535 96.9135 184.535C96.9135 184.535 120.995 205.692 121.582 220.385C122.17 235.077 123.932 261.523 123.932 261.523C123.932 261.523 137.441 263.874 172.682 264.462C207.923 265.049 226.719 261.523 226.719 261.523C226.719 261.523 230.83 253.883 234.942 242.717C239.053 231.551 241.99 215.683 241.99 215.683L244.516 197.406L244.339 196.877Z" fill="url(#paint2_linear)"/>
<path opacity="0.69" d="M100.203 181.773C101.319 180.892 102.728 180.304 104.079 179.951C108.191 178.894 112.243 180.363 115.826 182.361C118.763 184.006 121.054 186.357 123.579 188.532C125.048 189.766 126.634 190.589 128.278 191.588C130.158 192.763 131.45 194.056 131.097 196.407C130.921 197.465 130.628 198.464 130.334 199.522C129.923 201.343 129.805 203.165 129.805 205.046C129.805 209.395 130.451 213.979 132.507 217.916C134.739 222.148 135.326 231.374 138.087 235.136C142.786 241.6 147.426 242.012 153.946 251.003C156.824 254.941 162.991 264.285 165.693 265.108C165.693 265.108 171.214 265.402 153.946 265.108C136.677 264.814 123.99 261.582 123.99 261.582C123.99 261.582 122.228 235.136 121.641 220.443C121.112 207.69 102.904 190.06 98.0881 185.652C98.4993 184.006 98.793 182.831 100.203 181.773Z" fill="#073C70"/>
<path opacity="0.69" d="M54.8002 145.16C59.0879 139.871 64.0216 132.818 71.8922 129.88C79.7627 126.942 106.957 126.942 106.957 126.942L134.739 126.06C133.741 129.469 131.861 132.407 128.572 134.405C124.46 136.932 119.468 137.755 114.769 138.108C104.725 138.93 94.5641 138.049 84.6965 140.165C79.0579 141.34 73.7717 143.573 69.3666 147.276C64.5503 151.331 60.4975 156.15 56.7972 161.145C53.0968 166.199 50.1013 171.43 47.1058 176.954C43.9341 182.831 40.41 187.885 34.4777 191.176C29.4265 193.997 24.8451 196.524 21.1448 201.108C17.6794 205.398 15.0363 210.276 13.1567 215.389C13.0393 215.624 13.2155 215.918 13.4504 216.036C18.7953 220.15 24.199 224.263 29.8376 227.966C34.7126 231.198 39.8226 233.784 44.8739 236.664C46.3423 237.486 47.7519 238.368 49.1028 239.308L37.0033 241.542L2.93677 218.622C2.93677 218.622 50.5125 150.449 54.8002 145.16Z" fill="#073C70"/>
<path d="M225.427 261.406L221.139 269.163C221.139 269.163 214.972 271.514 189.128 272.102C163.285 272.689 123.344 267.694 123.344 267.694L123.932 261.523C123.932 261.523 178.321 264.109 197.234 264.285C216.146 264.462 225.427 261.406 225.427 261.406Z" fill="#F8E28F"/>
<path d="M226.66 169.373C226.66 169.373 217.85 173.075 210.919 169.373C203.988 165.67 197.997 158.736 197.997 158.736C197.997 158.736 192.476 168.903 183.666 173.546C174.855 178.188 163.343 176.778 163.343 176.778C163.343 176.778 169.804 195.76 173.504 205.457C177.205 215.154 182.726 229.494 202.167 228.612C221.609 227.672 228.54 206.398 228.54 197.171C228.54 187.944 226.66 169.373 226.66 169.373Z" fill="white"/>
<path d="M223.664 173.781C223.664 173.781 216.088 176.954 210.097 173.781C204.106 170.607 198.937 164.613 198.937 164.613C198.937 164.613 194.179 173.369 186.602 177.366C179.026 181.362 169.041 180.128 169.041 180.128C169.041 180.128 174.62 196.466 177.792 204.87C180.964 213.215 185.78 225.615 202.52 224.792C219.259 223.97 225.25 205.634 225.25 197.7C225.25 189.766 223.664 173.781 223.664 173.781Z" fill="#194D82"/>
<path d="M188.247 199.463C187.249 186.475 184.899 176.249 184.899 176.249H197.057L199.818 192.998L206.749 192.058L203.988 176.308L215.089 175.367C215.089 175.367 217.145 185.123 217.85 194.82C218.613 204.458 218.79 218.386 218.79 218.386L207.101 220.502L207.219 202.636H201.698L201.345 220.502L188.306 222.03C188.247 222.089 189.246 212.451 188.247 199.463Z" fill="white"/>
<path d="M110.423 273.865C108.661 271.514 116.883 269.163 116.883 269.163L115.121 260.935C115.121 260.935 112.772 262.111 110.423 260.935C108.073 259.76 105.136 256.234 105.136 256.234C105.136 256.234 93.9767 259.76 82.8169 259.172C71.6572 258.585 23.4941 248.594 23.4941 248.594C23.4941 248.594 43.4642 238.015 51.0998 236.84C58.7354 235.665 72.8319 235.077 72.8319 235.077L66.9584 218.034C66.9584 218.034 96.3261 234.489 105.724 239.778C115.121 245.068 126.281 253.295 126.281 259.76C126.281 266.225 122.17 272.102 118.646 273.865C115.121 275.628 110.423 273.865 110.423 273.865Z" fill="#E05432"/>
<path opacity="0.5" d="M51.0998 236.84C51.8046 236.722 52.5682 236.605 53.3905 236.546C54.7414 237.722 56.0923 238.956 57.4432 240.131C60.0863 242.482 62.5532 244.833 65.6074 246.654C68.6617 248.476 72.0096 249.946 75.2988 251.356C82.4058 254.353 89.689 254.294 97.0896 252.414C98.3818 252.12 99.4978 251.65 100.731 251.121C103.022 250.239 104.432 250.592 106.252 252.355C108.954 254.882 112.126 257.233 112.42 261.17C111.656 261.229 110.951 261.17 110.423 260.935C108.073 259.76 105.136 256.234 105.136 256.234C105.136 256.234 93.9767 259.76 82.8169 259.172C71.6572 258.585 23.4941 248.594 23.4941 248.594C23.4941 248.594 43.4642 238.015 51.0998 236.84Z" fill="#992714"/>
<path opacity="0.29" d="M266.13 131.584C266.13 131.584 278.406 141.046 279.581 153.388C280.755 165.729 289.566 176.895 289.566 176.895C289.566 176.895 288.391 167.492 288.391 161.615C288.391 155.738 288.391 148.686 288.391 148.686C288.391 148.686 283.281 142.045 279.405 139.224C275.469 136.345 266.13 131.584 266.13 131.584Z" fill="#073C70"/>
<path d="M327.744 104.315C324.807 93.5018 317.994 84.04 317.994 84.04C317.994 84.04 324.631 84.3926 328.919 80.5138C333.089 76.5763 332.443 59.9446 332.443 59.9446L315.409 54.6554C315.409 54.6554 313.824 36.672 311.885 36.4369C308.655 36.0255 307.186 69.3477 304.661 77.0465C303.78 80.7489 302.957 84.7452 302.194 88.5652C300.079 99.1437 293.677 132.231 293.677 132.231L308.009 121.3C308.009 121.3 312.942 134.523 316.467 141.399C319.991 148.275 336.26 163.966 336.26 163.966C336.26 163.966 330.681 115.129 327.744 104.315Z" fill="#E05432"/>
<path opacity="0.5" d="M318.581 84.9215C316.408 84.8628 316.114 86.9197 316.055 89.0942C315.997 93.4431 317.171 97.7332 318.405 101.847C320.519 109.076 322.046 115.717 321.635 123.239C321.342 129.175 320.637 135.287 318.698 140.929C318.405 141.751 318.052 142.633 317.641 143.456C322.692 150.978 336.202 163.966 336.202 163.966C336.202 163.966 330.68 115.129 327.744 104.315C325.336 95.5 320.343 87.5074 318.581 84.9215Z" fill="#992714"/>
<path d="M216.205 277.92L221.433 268.575H180.905L123.344 265.108L121.582 282.092C121.582 282.092 121.582 305.012 117.471 322.643C117.06 324.347 112.243 327.638 109.248 333.809C106.252 339.98 104.549 352.028 104.549 352.028L95.7387 356.142L92.2146 374.948L108.073 364.957L119.233 354.966L133.329 332.046L150.363 295.609C150.363 295.609 156.824 295.609 166.809 295.609C177.968 295.609 183.842 295.022 183.842 295.022C183.842 295.022 192.652 292.671 202.637 286.794C207.982 283.62 212.857 280.329 216.205 277.92Z" fill="url(#paint3_linear)"/>
<g opacity="0.69">
<path opacity="0.69" d="M115.239 335.807C119.35 332.928 123.521 330.224 125.165 325.229C126.751 320.469 126.692 315.297 127.515 310.419C129.159 300.722 134.739 293.846 140.378 286.206C144.665 280.388 146.839 273.571 148.836 266.636L123.344 265.108L121.582 282.092C121.582 282.092 121.582 305.012 117.471 322.643C117.06 324.347 112.243 327.638 109.248 333.809C108.249 335.866 107.368 338.628 106.664 341.332C109.542 339.392 112.596 337.629 115.239 335.807Z" fill="#073C70"/>
</g>
<path d="M191.477 279.154L177.968 261.523H203.225L191.477 279.154Z" fill="#F8E28F"/>
<path d="M0.587402 234.489L13.5092 273.865C13.5092 273.865 20.9686 256.41 30.0726 236.899L15.9761 227.437C7.45945 233.96 0.587402 234.489 0.587402 234.489Z" fill="#E05432"/>
<path d="M209.686 107.548C198.526 105.197 154.298 108.429 154.298 108.429C154.298 108.429 112.948 102.964 94.5642 107.548C66.3712 114.6 49.5141 128.587 47.5758 149.274C47.3409 151.801 47.0472 154.269 46.8123 156.62C50.9237 151.154 56.0337 144.22 57.2672 142.398C57.7958 141.634 59.0292 140.223 60.6738 138.519C61.3199 137.52 62.0835 136.58 62.9058 135.757C64.0805 134.523 65.3139 133.524 66.4886 132.701C70.1302 129.175 73.3607 126.06 73.3607 126.06C73.3607 126.06 70.0715 129.175 66.4886 132.701C73.7718 127.588 80.4089 129.116 80.4089 129.116C80.4089 129.116 86.1063 124.414 89.9241 124.003C106.37 122.24 117.53 147.511 151.596 147.511C172.741 147.511 187.307 127.647 187.307 127.647C187.307 127.647 193.827 135.169 207.336 132.231C220.845 129.292 230.243 116.363 230.243 116.363C230.243 116.363 220.845 109.898 209.686 107.548Z" fill="#E05432"/>
<path opacity="0.5" d="M198.526 124.591C196.529 122.416 191.771 106.666 184.547 106.842C185.017 110.486 185.252 114.247 184.194 117.774C182.726 122.651 183.372 129.469 179.672 132.818C172.623 139.107 162.756 143.279 153.828 143.985C148.601 144.396 124.225 131.408 120.231 127.706C117.53 125.237 114.652 123.357 111.539 121.77C108.719 120.947 106.076 119.595 103.022 118.831C97.7358 117.48 92.0972 116.363 86.6348 117.48C81.9359 118.479 78.5293 121.476 74.6527 124.121C72.7732 125.414 66.9584 130.879 66.1948 132.76C73.5368 127.47 80.2326 129.057 80.2326 129.057C80.2326 129.057 85.9299 124.356 89.7477 123.944C106.194 122.181 117.353 147.452 151.42 147.452C172.565 147.452 187.131 127.588 187.131 127.588C187.131 127.588 193.827 135.169 207.336 132.231C219.847 129.527 228.833 118.244 230.067 116.598C217.908 126.354 206.749 133.406 198.526 124.591Z" fill="#992714"/>
<path d="M126.634 45.2523L120.76 41.7262L114.886 12.3415L119.527 9.87323L134.857 35.8492L126.634 45.2523Z" fill="#093356"/>
<path d="M130.158 88.7415C130.158 88.7415 136.031 121.652 155.414 122.24C174.797 122.828 197.703 121.065 204.752 111.662C211.8 102.258 213.562 96.9692 214.737 88.7415C215.911 80.5139 211.917 65.4102 211.917 65.4102L164.812 57.5938L130.158 88.7415Z" fill="url(#paint4_linear)"/>
<path opacity="0.49" d="M199.348 113.072C194.884 114.071 188.599 115.305 184.194 114.6C174.855 113.131 167.22 110.486 159.173 104.962C150.48 98.9674 144.842 88.1538 142.962 77.2815L130.158 88.7415C130.158 88.7415 136.031 121.652 155.414 122.24C174.797 122.828 197.703 121.065 204.752 111.662C204.869 111.544 204.928 111.426 205.045 111.309C203.166 112.014 201.228 112.661 199.348 113.072Z" fill="#DD9C47"/>
<path d="M139.555 35.8492C139.555 35.2615 134.269 10.5785 134.269 10.5785L138.968 4.70154L145.429 12.3415L156.001 29.9723L139.555 35.8492Z" fill="#093356"/>
<path d="M181.845 79.3385C181.845 79.3385 185.956 81.6892 190.068 81.6892C194.179 81.6892 199.466 80.5138 199.466 80.5138V81.6892C199.466 81.6892 193.005 82.8646 190.068 82.8646C187.131 82.8646 181.845 79.3385 181.845 79.3385Z" fill="#44392A"/>
<path d="M182.139 120.183C158.233 123.357 139.555 92.8554 139.555 92.8554C139.555 92.8554 143.961 89.0354 149.247 85.5092C154.533 81.9831 176.265 74.9308 182.726 74.9308C189.187 74.9308 197.997 77.2815 197.997 77.2815C197.997 77.2815 201.521 70.8169 203.283 69.6415C205.045 68.4662 212.094 66.1154 212.094 66.1154C212.094 66.1154 206.808 46.1339 195.06 35.5554C183.313 24.9769 163.637 27.0338 163.637 27.0338C163.637 27.0338 157.47 20.2754 155.708 18.5123C153.946 16.7492 146.897 5.58308 146.897 5.58308L138.968 4.70154L144.548 17.3369L136.912 20.2754L126.34 6.17077L118.704 10.2846L128.689 37.9062L120.466 42.02C120.466 42.02 116.942 49.0723 117.53 54.3615C118.117 59.6508 118.704 62.5892 120.466 76.1062C122.228 89.6231 118.704 119.008 118.704 119.008C118.704 119.008 132.214 131.937 164.518 130.174C196.823 128.411 208.57 115.482 208.57 115.482L205.045 111.955C205.045 111.955 199.759 117.832 182.139 120.183ZM147.191 23.5077L153.652 29.3846C153.652 29.3846 148.366 30.56 146.016 31.1477C143.667 31.7354 141.318 32.9108 141.318 32.9108C141.318 32.3231 138.968 25.8585 138.968 25.8585L147.191 23.5077Z" fill="url(#paint5_linear)"/>
<path opacity="0.69" d="M135.033 127.177C134.739 124.532 136.501 122.475 138.087 120.183C140.965 116.069 142.257 109.898 139.614 105.256C137.617 101.788 133.506 100.26 131.685 96.6166C129.57 92.3852 129.688 87.096 129.101 82.512C128.396 77.2815 126.927 72.1686 127.28 66.8794C127.573 61.7077 129.277 56.7711 130.275 51.7169C131.039 47.8969 132.272 44.6646 134.857 41.7262C137.089 39.1403 139.849 37.0246 142.257 34.6738C137.617 35.7317 133.036 37.3772 128.337 38.0825L120.466 42.02C120.466 42.02 116.942 49.0723 117.53 54.3615C118.117 59.6508 118.704 62.5892 120.466 76.1062C122.228 89.6231 118.704 119.008 118.704 119.008C118.704 119.008 123.756 123.827 135.033 127.177Z" fill="#073C70"/>
<path d="M150.715 58.7692C150.715 58.7692 155.003 57.6526 159.525 56.4185C163.108 55.4194 168.336 52.8923 172.447 53.48C181.199 54.7142 185.956 59.9446 185.956 59.9446C185.956 59.9446 181.258 72.2862 169.51 72.2862C153.065 72.2862 150.715 58.7692 150.715 58.7692Z" fill="white"/>
<path d="M194.767 58.7692C194.767 58.7692 194.767 51.1292 197.116 48.1908C199.465 45.2523 201.815 44.6646 201.815 44.6646C201.815 44.6646 205.339 49.3662 206.514 51.7169C207.688 54.0677 208.863 58.7692 208.863 58.7692C208.863 58.7692 204.164 61.7077 201.815 61.12C199.465 60.5323 194.767 58.7692 194.767 58.7692Z" fill="white"/>
<path d="M121.289 342.037C120.995 342.154 120.643 342.154 120.466 341.802C119.174 339.04 119.174 335.925 117.823 333.163C116.707 330.988 115.121 329.225 113.301 327.697C111.95 329.343 110.423 331.341 109.248 333.75C106.252 339.921 104.549 351.969 104.549 351.969L95.7387 356.083L92.2146 374.889L108.073 364.898L119.233 354.907L129.042 338.981C126.399 339.921 123.814 340.92 121.289 342.037Z" fill="#E05432"/>
<path d="M185.898 342.037C185.604 342.154 185.252 342.154 185.075 341.802C183.783 339.04 183.783 335.925 182.432 333.163C181.316 330.988 179.731 329.225 177.91 327.697C176.559 329.343 175.032 331.341 173.857 333.75C170.862 339.921 169.158 351.969 169.158 351.969L160.348 356.083L156.824 374.889L172.682 364.898L183.842 354.907L193.651 338.981C191.008 339.921 188.423 340.92 185.898 342.037Z" fill="#E05432"/>
<path d="M306.54 72.2274C306.54 72.2274 306.599 65.2338 304.837 64.6462C303.075 64.0585 298.376 62.8831 298.376 62.8831C298.376 62.8831 300.725 57.0062 303.662 57.5938C306.599 58.1815 311.885 61.12 311.885 61.12L310.71 72.2862L306.54 72.2274Z" fill="#E05432"/>
<defs>
<linearGradient id="paint0_linear" x1="181.824" y1="316.634" x2="200.223" y2="326.828" gradientUnits="userSpaceOnUse">
<stop offset="0.00506811" stop-color="#003B7C"/>
<stop offset="1" stop-color="#1F77BF"/>
</linearGradient>
<linearGradient id="paint1_linear" x1="241.947" y1="188.399" x2="278.756" y2="151.611" gradientUnits="userSpaceOnUse">
<stop offset="0.00506811" stop-color="#003B7C"/>
<stop offset="1" stop-color="#1F77BF"/>
</linearGradient>
<linearGradient id="paint2_linear" x1="53.2998" y1="200.436" x2="186.23" y2="191.842" gradientUnits="userSpaceOnUse">
<stop offset="0.00506811" stop-color="#003B7C"/>
<stop offset="1" stop-color="#1F77BF"/>
</linearGradient>
<linearGradient id="paint3_linear" x1="73.7529" y1="258.362" x2="204.739" y2="358.216" gradientUnits="userSpaceOnUse">
<stop offset="0.00506811" stop-color="#003B7C"/>
<stop offset="1" stop-color="#1F77BF"/>
</linearGradient>
<linearGradient id="paint4_linear" x1="153.14" y1="98.2193" x2="200.483" y2="79.8927" gradientUnits="userSpaceOnUse">
<stop offset="0.00506811" stop-color="#F7C172"/>
<stop offset="1" stop-color="#FFD99C"/>
</linearGradient>
<linearGradient id="paint5_linear" x1="108.545" y1="88.7334" x2="159.264" y2="65.6929" gradientUnits="userSpaceOnUse">
<stop offset="0.00506811" stop-color="#003B7C"/>
<stop offset="1" stop-color="#1F77BF"/>
</linearGradient>
</defs>
</svg>
