<svg width="119" height="118" viewBox="0 0 119 118" fill="none" xmlns="http://www.w3.org/2000/svg">
<path d="M80.9669 39.0817C80.9669 37.6722 80.4105 36.347 79.4004 35.3504C78.3901 34.3537 77.0471 33.8048 75.6183 33.8048C74.1897 33.8048 72.8466 34.3537 71.8363 35.3504L67.3348 39.7915L67.0972 39.5571C65.3009 37.785 62.3782 37.7851 60.5821 39.5571C58.9336 41.1836 58.798 43.746 60.1755 45.5264L46.5641 58.9555C45.3496 60.1537 44.698 61.7469 44.7191 63.4145L43.6604 64.459C41.9411 66.1552 41.9412 68.9151 43.6604 70.6112C44.3169 71.2588 45.1304 71.6583 45.9811 71.8115C45.742 72.0211 44.8837 72.7942 44.0211 73.8182C42.5635 75.5483 41.8245 77.1242 41.8245 78.502C41.8245 81.3254 44.1526 83.6225 47.0144 83.6225C49.8762 83.6225 52.2044 81.3255 52.2044 78.502C52.2044 75.3546 48.402 72.1033 47.9684 71.743L47.9492 71.727C48.6628 71.5343 49.3368 71.1631 49.8963 70.6112L50.955 69.5668C52.6405 69.5878 54.26 68.9446 55.4746 67.7464L69.0861 54.3174C70.8907 55.6765 73.4882 55.5427 75.1365 53.9163C76.0066 53.0578 76.4859 51.9164 76.4859 50.7023C76.4859 49.4883 76.0067 48.3469 75.1365 47.4885L74.899 47.2541L79.4004 42.813C80.4105 41.8163 80.9669 40.4912 80.9669 39.0817ZM49.2429 78.502C49.2429 79.7143 48.2431 80.7006 47.0144 80.7006C45.7856 80.7006 44.786 79.7144 44.786 78.502C44.786 77.5429 45.9035 76.0347 47.0237 74.8745C48.1363 76.0134 49.2429 77.509 49.2429 78.502ZM53.3805 65.6803C52.6404 66.4105 51.6187 66.7513 50.5782 66.6156L49.8537 66.521L47.8022 68.5451C47.2376 69.1021 46.3191 69.102 45.7546 68.5451C45.19 67.9882 45.1901 67.082 45.7546 66.525L47.8061 64.501L47.7103 63.7862C47.5727 62.7593 47.9182 61.7517 48.6583 61.0215L53.3356 56.4069L58.0577 61.0658L53.3805 65.6803ZM73.0424 51.8502C72.4008 52.483 71.357 52.483 70.7157 51.8502L69.0571 50.2138L58.0577 61.0658L53.3356 56.4069L64.335 45.555L62.6763 43.9187C62.3656 43.6121 62.1945 43.2045 62.1945 42.7709C62.1945 42.3373 62.3655 41.9297 62.6764 41.623C62.9872 41.3164 63.4003 41.1476 63.8398 41.1476C64.2792 41.1476 64.6924 41.3164 65.0032 41.623L73.0424 49.5544C73.3531 49.861 73.5243 50.2686 73.5243 50.7022C73.5242 51.136 73.3531 51.5436 73.0424 51.8502ZM77.3062 40.7469L72.8047 45.1881L69.429 41.8576L73.9304 37.4164C74.3813 36.9716 74.9808 36.7267 75.6183 36.7267C76.2559 36.7267 76.8553 36.9716 77.3062 37.4165C77.7571 37.8612 78.0053 38.4527 78.0053 39.0817C78.0053 39.7107 77.7571 40.3021 77.3062 40.7469Z" fill="#1962BA"/>
<circle cx="59.6166" cy="58.7137" r="58.1197" stroke="#1962BA" stroke-width="1.18788"/>
</svg>
