<svg width="88" height="88" viewBox="0 0 88 88" fill="none" xmlns="http://www.w3.org/2000/svg">
<path d="M60 29.2878C60 28.2315 59.583 27.2385 58.826 26.4916C58.0689 25.7447 57.0624 25.3333 55.9917 25.3333C54.9211 25.3333 53.9146 25.7447 53.1575 26.4916L49.7841 29.8198L49.606 29.6441C48.2599 28.3161 46.0696 28.3161 44.7236 29.6441C43.4882 30.863 43.3866 32.7833 44.4189 34.1175L34.2185 44.1812C33.3084 45.0792 32.82 46.2731 32.8359 47.5228L32.0425 48.3056C30.7541 49.5767 30.7541 51.645 32.0425 52.916C32.5345 53.4014 33.1441 53.7008 33.7816 53.8155C33.6024 53.9726 32.9592 54.552 32.3127 55.3193C31.2204 56.6159 30.6666 57.7968 30.6666 58.8294C30.6666 60.9453 32.4114 62.6667 34.556 62.6667C36.7006 62.6667 38.4454 60.9453 38.4454 58.8294C38.4454 56.4707 35.5958 54.0342 35.2709 53.7642L35.2565 53.7522C35.7913 53.6078 36.2963 53.3296 36.7157 52.916L37.509 52.1333C38.7721 52.1491 39.9858 51.6671 40.896 50.7691L51.0965 40.7055C52.4489 41.724 54.3954 41.6237 55.6306 40.4048C56.2827 39.7615 56.6419 38.9062 56.6419 37.9963C56.6419 37.0865 56.2828 36.2312 55.6306 35.5879L55.4527 35.4122L58.826 32.0841C59.583 31.3371 60 30.3441 60 29.2878ZM36.226 58.8294C36.226 59.7379 35.4768 60.477 34.556 60.477C33.6351 60.477 32.886 59.738 32.886 58.8294C32.886 58.1106 33.7235 56.9804 34.5629 56.111C35.3967 56.9644 36.226 58.0852 36.226 58.8294ZM39.3267 49.2208C38.7721 49.768 38.0065 50.0234 37.2267 49.9217L36.6838 49.8509L35.1463 51.3677C34.7232 51.7851 34.0349 51.785 33.6118 51.3677C33.1887 50.9504 33.1888 50.2713 33.6118 49.8539L35.1493 48.337L35.0774 47.8014C34.9743 47.0319 35.2332 46.2767 35.7879 45.7295L39.293 42.2714L42.8318 45.7627L39.3267 49.2208ZM54.0613 38.8565C53.5805 39.3308 52.7983 39.3308 52.3177 38.8565L51.0748 37.6302L42.8318 45.7627L39.293 42.2714L47.536 34.1389L46.293 32.9127C46.0602 32.6829 45.9319 32.3775 45.9319 32.0525C45.9319 31.7276 46.0601 31.4221 46.2931 31.1923C46.526 30.9625 46.8356 30.8361 47.1649 30.8361C47.4942 30.8361 47.8039 30.9625 48.0368 31.1923L54.0613 37.1361C54.2942 37.3658 54.4225 37.6713 54.4225 37.9962C54.4224 38.3213 54.2942 38.6268 54.0613 38.8565ZM57.2566 30.5357L53.8832 33.864L51.3534 31.3681L54.7268 28.0399C55.0647 27.7065 55.514 27.523 55.9917 27.523C56.4696 27.523 56.9187 27.7065 57.2566 28.04C57.5945 28.3732 57.7806 28.8165 57.7806 29.2878C57.7806 29.7592 57.5945 30.2024 57.2566 30.5357Z" fill="white"/>
<circle cx="44" cy="44" r="43.5" stroke="white"/>
</svg>
