<svg width="88" height="88" viewBox="0 0 88 88" fill="none" xmlns="http://www.w3.org/2000/svg">
<circle cx="44" cy="44" r="43.5" stroke="white"/>
<path d="M53.0162 41.6248C52.8205 41.1922 52.3903 40.9167 51.9167 40.9167H47.0833V25.2083C47.0833 24.5413 46.542 24 45.875 24H41.0417C40.3747 24 39.8333 24.5413 39.8333 25.2083V40.9167H35C34.5263 40.9167 34.0962 41.1946 33.9004 41.6248C33.7022 42.0573 33.7796 42.5624 34.0913 42.9201L42.5497 52.5868C42.7792 52.8502 43.1103 53 43.4583 53C43.8063 53 44.1374 52.8477 44.367 52.5868L52.8253 42.9201C53.1395 42.5648 53.212 42.0573 53.0162 41.6248Z" fill="white"/>
<path d="M56.75 50.5833V57.8333H30.1667V50.5833H25.3334V60.25C25.3334 61.5864 26.416 62.6667 27.75 62.6667H59.1667C60.5031 62.6667 61.5834 61.5864 61.5834 60.25V50.5833H56.75Z" fill="white"/>
</svg>
