<svg width="196" height="66" viewBox="0 0 196 66" fill="none" xmlns="http://www.w3.org/2000/svg">
<path fill-rule="evenodd" clip-rule="evenodd" d="M30.3 10.2C30.3 10.2 33.6 14.8 39.5 17.5C45.4 20.3 49.6 21 49.6 21V34.5C49.6 55.7 30.3 56.1 30.3 56.1C30.3 56.1 11 55.8 11 34.5V21C11 21 15.1 20.3 21.1 17.5C27 14.8 30.3 10.2 30.3 10.2ZM31.4 49.7H39.3V20.5H31.4V30.8H27.6V20.5H19.7V49.7H27.6V38H31.4V49.7Z" fill="white"/>
<path d="M60.9 17.3H65.2V29.7H71.5V17.3H75.8V49H71.5V33.4H65.2V49.1H60.9V17.3Z" fill="white"/>
<path d="M79.4 17.3H90.8V21H83.7V31H90V34.6H83.7V45.4H90.8V49H79.4V17.3Z" fill="white"/>
<path d="M93.5 17.3H99.1C101.4 17.3 103.2 17.9 104.3 19C105.7 20.4 106.5 22.6 106.5 25.6C106.5 27.9 106.1 29.7 105.4 31.1C104.6 32.5 103.6 33.3 102.1 33.7L107.9 49.1H103.6L97.8 33.6V49.1H93.5V17.3ZM97.7 31.4C99.4 31.4 100.5 31 101.2 30.2C101.9 29.4 102.2 28.1 102.2 26.3C102.2 25.3 102.1 24.5 102 23.8C101.9 23.1 101.6 22.5 101.3 22.1C101 21.7 100.6 21.3 100.1 21.1C99.6 20.9 99 20.8 98.4 20.8H97.7V31.4Z" fill="white"/>
<path d="M125.6 34C125.6 39.6 125 43.6 123.7 45.9C122.5 48.3 120.4 49.4 117.4 49.4C114.3 49.4 112.1 48.1 110.9 45.6C109.7 43.1 109 38.7 109 32.4C109 26.8 109.6 22.8 110.9 20.4C112.1 18 114.3 16.9 117.2 16.9C119.9 16.9 121.8 17.8 123.1 19.6C123.9 20.8 124.6 22.6 125 24.8C125.4 27 125.6 30 125.6 34ZM121.2 34.4C121.2 28.9 121 25.3 120.5 23.5C120 21.7 119 20.8 117.5 20.8C116 20.8 115 21.6 114.5 23.3C114 25 113.8 28.3 113.8 33.4C113.8 38 114.1 41.3 114.6 43.1C115.1 44.8 116.1 45.6 117.6 45.6C119 45.6 120 44.8 120.6 43.2C120.9 41.6 121.2 38.7 121.2 34.4Z" fill="white"/>
<path d="M128.7 17.1H132.9V39.5C132.9 41.8 133.1 43.3 133.5 44.1C133.9 44.9 134.8 45.2 136 45.2C137.2 45.2 138.1 44.9 138.5 44.2C138.9 43.5 139.1 42.2 139.1 40.1V17.1H143.3V40.1C143.3 43.6 142.8 45.9 141.7 47.1C140.4 48.5 138.5 49.2 135.9 49.2C133 49.2 131 48.3 129.9 46.5C129.1 45.3 128.7 42.9 128.7 39.5V17.1Z" fill="white"/>
<path d="M146.9 17.3H150.9L155.2 30C156.4 33.6 157.5 37.4 158.5 41.4C158.2 38.9 157.9 36.7 157.7 34.7C157.5 32.7 157.5 30.8 157.5 29.1V17.3H161.8V49H157.8L153 34.7C152.6 33.4 152.1 32 151.8 30.6C151.4 29.2 151 27.7 150.7 26.2C150.7 26 150.6 25.8 150.6 25.5C150.5 25.2 150.5 24.9 150.4 24.6C150.4 25 150.5 25.3 150.5 25.5C150.5 25.8 150.5 26 150.6 26.1L150.8 29.3L151 33.2C151 33.4 151 33.7 151 34C151 34.3 151 34.7 151 35.1L151.2 48.9H147V17.3H146.9Z" fill="white"/>
<path d="M165.4 17.3H169.7V49H165.4V17.3Z" fill="white"/>
<path d="M171.6 17.3H185.5V21H180.7V49H176.5V21H171.6V17.3Z" fill="white"/>
</svg>
