<svg width="88" height="88" viewBox="0 0 88 88" fill="none" xmlns="http://www.w3.org/2000/svg">
<path d="M33.992 63V29.604H27.69V25.74H45.308V29.604H39.19V63H33.992ZM55.57 63.368C54.19 63.368 53.0706 63.1073 52.212 62.586C51.384 62.0647 50.7706 61.3287 50.372 60.378C50.004 59.4273 49.82 58.308 49.82 57.02V39.678H47.014V36.412H49.82V28.638H54.742V36.412H59.02V39.678H54.742V56.698C54.742 57.7407 54.9106 58.492 55.248 58.952C55.5853 59.3813 56.2293 59.596 57.18 59.596C57.4253 59.596 57.7013 59.5807 58.008 59.55C58.3453 59.5193 58.6673 59.4887 58.974 59.458V63.092C58.3606 63.184 57.7933 63.2453 57.272 63.276C56.7506 63.3373 56.1833 63.368 55.57 63.368Z" fill="white"/>
<circle cx="44" cy="44" r="43.5" stroke="white"/>
</svg>
