<svg width="119" height="118" viewBox="0 0 119 118" fill="none" xmlns="http://www.w3.org/2000/svg">
<path d="M45.286 75.6752V36.0048H37.8V31.4148H58.728V36.0048H51.4606V75.6752H45.286ZM70.918 76.1123C69.2787 76.1123 67.9491 75.8027 66.9291 75.1834C65.9455 74.5641 65.217 73.6898 64.7434 72.5606C64.3063 71.4313 64.0877 70.1017 64.0877 68.5717V47.9715H60.7545V44.0919H64.0877V34.8573H69.9344V44.0919H75.0162V47.9715H69.9344V68.1892C69.9344 69.4277 70.1348 70.3202 70.5355 70.8667C70.9362 71.3766 71.7012 71.6316 72.8305 71.6316C73.1219 71.6316 73.4497 71.6134 73.814 71.577C74.2147 71.5406 74.5972 71.5041 74.9615 71.4677V75.7845C74.233 75.8938 73.559 75.9666 72.9398 76.003C72.3205 76.0759 71.6465 76.1123 70.918 76.1123Z" fill="#1962BA"/>
<circle cx="59.6651" cy="58.7137" r="58.1197" stroke="#1962BA" stroke-width="1.18788"/>
</svg>
