<svg width="119" height="118" viewBox="0 0 119 118" fill="none" xmlns="http://www.w3.org/2000/svg">
<circle cx="59.5681" cy="58.7137" r="58.1197" stroke="#1962BA" stroke-width="1.18788"/>
<path d="M71.5993 55.5441C71.3381 54.9669 70.7641 54.5992 70.132 54.5992H63.6824V33.638C63.6824 32.748 62.9601 32.0256 62.07 32.0256H55.6204C54.7304 32.0256 54.008 32.748 54.008 33.638V54.5992H47.5584C46.9263 54.5992 46.3523 54.9701 46.0911 55.5441C45.8267 56.1213 45.9299 56.7953 46.3459 57.2726L57.6327 70.1718C57.939 70.5233 58.3808 70.7232 58.8452 70.7232C59.3096 70.7232 59.7514 70.5201 60.0577 70.1718L71.3445 57.2726C71.7638 56.7985 71.8605 56.1213 71.5993 55.5441Z" fill="#1962BA"/>
<path d="M76.5819 67.4984V77.1729H41.109V67.4984H34.6594V80.3977C34.6594 82.181 36.1041 83.6225 37.8842 83.6225H79.8067C81.59 83.6225 83.0315 82.181 83.0315 80.3977V67.4984H76.5819Z" fill="#1962BA"/>
</svg>
