<svg width="905" height="250" viewBox="0 0 905 250" fill="none" xmlns="http://www.w3.org/2000/svg">
<g clip-path="url(#clip0)">
<path fill-rule="evenodd" clip-rule="evenodd" d="M114.79 38.6364C114.79 38.6364 127.292 56.0606 149.644 66.2879C171.996 76.894 187.908 79.5455 187.908 79.5455V130.682C187.908 210.985 114.79 212.5 114.79 212.5C114.79 212.5 41.6731 211.364 41.6731 130.682V79.5455C41.6731 79.5455 57.2058 76.894 79.9365 66.2879C102.288 56.0606 114.79 38.6364 114.79 38.6364ZM118.957 188.258H148.886V77.6515H118.957V116.667H104.561V77.6515H74.6325V188.258H104.561V143.939H118.957V188.258Z" fill="#1962BA"/>
<path d="M230.717 65.5303H247.007V112.5H270.875V65.5303H287.165V185.606H270.875V126.515H247.007V185.985H230.717V65.5303Z" fill="black"/>
<path d="M300.803 65.5303H343.992V79.5454H317.094V117.424H340.961V131.061H317.094V171.97H343.992V185.606H300.803V65.5303Z" fill="black"/>
<path d="M354.221 65.5303H375.436C384.149 65.5303 390.969 67.803 395.136 71.9697C400.44 77.2727 403.471 85.606 403.471 96.9697C403.471 105.682 401.955 112.5 399.303 117.803C396.272 123.106 392.484 126.136 386.801 127.651L408.774 185.985H392.484L370.511 127.273V185.985H354.221V65.5303ZM370.132 118.939C376.572 118.939 380.74 117.424 383.392 114.394C386.044 111.364 387.18 106.439 387.18 99.6212C387.18 95.8333 386.801 92.803 386.422 90.1515C386.044 87.5 384.907 85.2272 383.771 83.7121C382.634 82.1969 381.119 80.6818 379.224 79.9242C377.33 79.1666 375.057 78.7878 372.784 78.7878H370.132V118.939Z" fill="black"/>
<path d="M475.83 128.788C475.83 150 473.557 165.152 468.632 173.864C464.086 182.955 456.13 187.121 444.765 187.121C433.02 187.121 424.686 182.197 420.14 172.727C415.594 163.258 412.942 146.591 412.942 122.727C412.942 101.515 415.215 86.3636 420.14 77.2727C424.686 68.1818 433.02 64.0151 444.007 64.0151C454.236 64.0151 461.434 67.4242 466.359 74.2424C469.39 78.7879 472.042 85.606 473.557 93.9394C475.072 102.273 475.83 113.636 475.83 128.788ZM459.161 130.303C459.161 109.47 458.403 95.8333 456.509 89.0151C454.615 82.197 450.826 78.7879 445.144 78.7879C439.461 78.7879 435.672 81.8182 433.778 88.2576C431.884 94.697 431.126 107.197 431.126 126.515C431.126 143.939 432.263 156.439 434.157 163.258C436.051 169.697 439.84 172.727 445.522 172.727C450.826 172.727 454.615 169.697 456.888 163.636C458.024 157.576 459.161 146.591 459.161 130.303Z" fill="black"/>
<path d="M487.574 64.7728H503.486V149.621C503.486 158.333 504.243 164.015 505.759 167.045C507.274 170.076 510.684 171.212 515.23 171.212C519.776 171.212 523.186 170.076 524.701 167.424C526.216 164.773 526.974 159.849 526.974 151.894V64.7728H542.886V151.894C542.886 165.152 540.991 173.864 536.824 178.409C531.899 183.712 524.701 186.364 514.851 186.364C503.864 186.364 496.288 182.955 492.12 176.136C489.089 171.591 487.574 162.5 487.574 149.621V64.7728Z" fill="black"/>
<path d="M556.524 65.5303H571.678L587.968 113.636C592.515 127.273 596.682 141.667 600.47 156.818C599.334 147.348 598.197 139.015 597.44 131.439C596.682 123.864 596.682 116.667 596.682 110.227V65.5303H612.972V185.606H597.818L579.634 131.439C578.118 126.515 576.224 121.212 575.088 115.909C573.572 110.606 572.057 104.924 570.92 99.2424C570.92 98.4848 570.542 97.7272 570.542 96.5909C570.163 95.4545 570.163 94.3182 569.784 93.1818C569.784 94.6969 570.163 95.8333 570.163 96.5909C570.163 97.7272 570.163 98.4848 570.542 98.8636L571.299 110.985L572.057 125.758C572.057 126.515 572.057 127.651 572.057 128.788C572.057 129.924 572.057 131.439 572.057 132.955L572.815 185.227H556.903V65.5303H556.524Z" fill="black"/>
<path d="M626.611 65.5303H642.901V185.606H626.611V65.5303Z" fill="black"/>
<path d="M650.099 65.5303H702.759V79.5454H684.574V185.606H668.662V79.5454H650.099V65.5303Z" fill="black"/>
</g>
<path opacity="0.72" d="M769.21 211.881L793.747 213H817.447L818.284 211.041H832.225L848.119 213L844.494 209.922L877.117 208.243L875.723 205.445H883.809L862.06 202.087L810.756 204.606L779.973 207.544L769.21 211.881Z" fill="url(#paint0_linear)"/>
<path d="M848.119 213L839.754 203.766C839.754 203.766 834.066 190.671 833.062 186.418C831.11 178.024 828.322 169.07 828.322 169.07L827.485 160.983L800.16 162.634H780.921L783.43 167.111V172.428C783.43 172.428 782.873 181.102 781.478 186.418C780.084 191.734 777.575 203.207 777.575 203.207L769.21 211.881L785.661 209.362L784.824 205.165C784.824 205.165 788.728 199.849 790.122 196.771C791.516 193.693 790.68 189.776 790.68 189.776L798.766 175.226C798.766 175.226 801.554 175.506 806.852 175.506C811.592 175.506 814.659 175.506 814.659 175.506L825.812 191.734C825.812 191.734 826.091 192.854 826.37 195.092C827.067 200.632 832.225 205.725 832.225 205.725L831.947 210.762L848.119 213Z" fill="url(#paint1_linear)"/>
<path opacity="0.69" d="M820.431 164.145C820.682 165.432 820.598 166.72 820.654 168.035C820.738 169.741 821.546 170.805 822.717 171.952C824.53 173.715 826.286 175.282 827.29 177.66C828.433 180.346 827.318 183.256 827.987 186.082C828.712 189.076 830.19 191.427 832.17 193.721C833.703 195.512 835.348 197.247 836.268 199.457C837.3 201.976 837.579 204.718 838.443 207.264C839.001 208.915 839.726 210.538 840.562 212.077L848.119 213L839.754 203.766C839.754 203.766 834.066 190.671 833.062 186.418C831.11 178.024 828.322 169.07 828.322 169.07L827.485 160.983L819.483 161.459C819.929 162.299 820.264 163.194 820.431 164.145Z" fill="#073C70"/>
<path opacity="0.69" d="M797.874 175.002C795.392 174.386 792.799 174.079 790.373 173.267C791.6 176.709 791.935 180.85 790.764 184.292C790.206 185.942 789.341 187.481 788.533 188.992C787.445 191.035 786.581 193.078 786.051 195.344C785.549 197.499 785.159 199.709 784.462 201.808C783.988 203.207 783.514 204.606 783.151 206.033C782.817 207.348 782.65 208.719 782.733 209.978L785.661 209.362L784.824 205.165C784.824 205.165 788.728 199.849 790.122 196.771C791.516 193.693 790.68 189.776 790.68 189.776L798.766 175.226C798.766 175.226 798.766 175.226 798.794 175.226C798.487 175.142 798.18 175.058 797.874 175.002Z" fill="#073C70"/>
<path d="M780.921 90.1638C780.921 90.1638 783.43 137.452 780.921 142.208C778.411 146.965 771.441 162.075 771.441 162.075C771.441 162.075 768.931 161.235 778.969 162.355C789.007 163.474 807.689 159.277 814.38 156.479C821.072 153.68 829.437 151.162 835.85 150.882C842.263 150.603 855.926 147.804 871.819 138.571C887.713 129.337 893.289 120.943 893.289 120.943L865.406 108.631L846.446 90.1638L810.756 95.2003L780.921 90.1638Z" fill="#441616"/>
<path d="M860.025 103.874C857.989 101.356 855.647 97.9984 851.911 96.5994C848.175 95.2003 835.265 95.2003 835.265 95.2003L800.69 94.0811L780.893 90.1638C780.893 90.1638 776.711 90.1638 770.297 91.8426C763.884 93.5215 743 131.576 743 131.576L746.067 137.731C746.067 137.731 751.923 137.452 758.336 139.13C764.052 140.613 767.537 144.167 767.537 144.167L769.21 135.213L771.162 137.452L765.864 131.016L769.935 128.526L771.162 137.452C771.162 137.452 772.556 145.006 774.508 150.323C776.46 155.639 778.411 159.277 778.411 159.277C778.411 159.277 787.334 160.955 804.064 160.676C820.793 160.396 827.207 159.277 827.207 159.277C827.207 159.277 828.043 146.685 828.322 139.69C828.601 132.695 840.033 122.622 840.033 122.622C840.033 122.622 844.494 127.099 849.234 130.456C853.974 133.814 859.551 136.612 859.551 136.612C859.551 136.612 855.647 137.731 854.811 138.851C853.974 139.97 851.465 146.685 851.465 146.685L868.473 149.763L884.645 138.851C884.645 138.851 862.06 106.393 860.025 103.874Z" fill="url(#paint2_linear)"/>
<path opacity="0.69" d="M838.471 121.307C837.941 120.887 837.272 120.607 836.631 120.439C834.679 119.935 832.755 120.635 831.054 121.586C829.66 122.37 828.573 123.489 827.374 124.524C826.677 125.112 825.924 125.504 825.143 125.979C824.251 126.539 823.637 127.155 823.805 128.274C823.888 128.777 824.028 129.253 824.167 129.757C824.362 130.624 824.418 131.492 824.418 132.387C824.418 134.458 824.111 136.64 823.136 138.515C822.076 140.529 821.797 144.922 820.487 146.713C818.256 149.791 816.053 149.987 812.958 154.268C811.592 156.143 808.664 160.592 807.382 160.983C807.382 160.983 804.761 161.123 812.958 160.983C821.156 160.844 827.179 159.305 827.179 159.305C827.179 159.305 828.015 146.713 828.294 139.718C828.545 133.646 837.189 125.252 839.475 123.153C839.28 122.37 839.14 121.81 838.471 121.307Z" fill="#073C70"/>
<path opacity="0.69" d="M860.025 103.874C857.989 101.356 855.647 97.9984 851.911 96.5994C848.175 95.2003 835.265 95.2003 835.265 95.2003L822.076 94.7806C822.55 96.4035 823.442 97.8025 825.004 98.7539C826.956 99.9571 829.326 100.349 831.556 100.517C836.324 100.908 841.148 100.489 845.832 101.496C848.509 102.056 851.019 103.119 853.11 104.882C855.396 106.812 857.32 109.107 859.077 111.485C860.834 113.892 862.256 116.382 863.678 119.012C865.183 121.81 866.856 124.217 869.672 125.783C872.07 127.127 874.245 128.33 876.002 130.512C877.647 132.555 878.902 134.877 879.794 137.312C879.85 137.424 879.766 137.563 879.655 137.619C877.117 139.578 874.552 141.537 871.875 143.3C869.561 144.838 867.135 146.07 864.737 147.441C864.04 147.832 863.371 148.252 862.73 148.7L868.473 149.763L884.646 138.851C884.646 138.851 862.06 106.393 860.025 103.874Z" fill="#073C70"/>
<path d="M776.738 90.1638C776.738 90.1638 781.2 87.0859 786.497 85.9666C791.795 84.8474 812.791 86.3863 812.791 86.3863C812.791 86.3863 832.421 83.7841 841.148 85.9666C854.532 89.3243 859.467 102.979 867.358 108.911C872.934 113.108 898.587 114.787 898.587 114.787L905 125.979C905 125.979 881.299 128.218 870.983 119.32C870.453 118.872 862.2 105.553 856.205 99.3975C852.162 95.2563 847.896 96.2356 847.896 96.2356C847.896 96.2356 845.191 93.9972 843.379 93.8013C835.571 92.9619 830.274 104.994 814.101 104.994C804.064 104.994 797.149 95.5361 797.149 95.5361C797.149 95.5361 794.026 99.1177 787.613 97.7186C781.2 96.3196 776.738 90.1638 776.738 90.1638Z" fill="#E05432"/>
<path opacity="0.5" d="M898.587 114.787C898.587 114.787 872.935 113.108 867.358 108.911C863.148 105.749 859.802 100.405 855.564 95.62C853.723 95.676 852.078 94.9485 850.572 93.8852C848.76 92.6261 847.143 91.1991 844.884 90.7234C842.291 90.1917 839.614 90.7234 837.105 91.3669C835.655 91.7307 834.4 92.3743 833.062 92.766C831.584 93.5215 830.218 94.3889 828.935 95.5921C827.039 97.3549 815.44 103.539 812.986 103.343C808.748 103.007 804.064 101.02 800.718 98.0264C798.961 96.4315 799.268 93.1857 798.571 90.8633C798.069 89.1844 798.18 87.3936 798.403 85.6588C794.974 85.5469 792.715 93.0738 791.767 94.1091C787.864 98.3062 782.566 94.9485 776.794 90.3037C777.38 91.0871 781.646 96.4595 787.585 97.7466C793.998 99.1456 797.121 95.5641 797.121 95.5641C797.121 95.5641 804.064 104.994 814.102 104.994C830.274 104.994 835.571 92.9619 843.379 93.8013C845.191 93.9971 847.896 96.2356 847.896 96.2356C847.896 96.2356 852.134 95.2563 856.205 99.3975C862.2 105.553 870.453 118.844 870.983 119.32C881.3 128.218 905 125.979 905 125.979L898.587 114.787Z" fill="#992714"/>
<path d="M825.924 56.3068L828.712 54.628L831.5 40.6375L829.298 39.4623L822.02 51.8299L825.924 56.3068Z" fill="#093356"/>
<path d="M824.251 77.0127C824.251 77.0127 821.463 92.682 812.261 92.9618C803.06 93.2417 792.186 92.4022 788.84 87.9253C785.494 83.4483 784.657 80.93 784.099 77.0127C783.542 73.0954 785.438 65.9043 785.438 65.9043L807.8 62.1828L824.251 77.0127Z" fill="url(#paint3_linear)"/>
<path opacity="0.49" d="M791.405 88.5968C793.524 89.0725 796.507 89.6601 798.599 89.3243C803.032 88.6248 806.657 87.3656 810.477 84.7354C814.603 81.8814 817.28 76.7329 818.172 71.5564L824.251 77.0407C824.251 77.0407 821.463 92.71 812.261 92.9898C803.06 93.2696 792.186 92.4302 788.84 87.9532C788.784 87.8973 788.756 87.8413 788.7 87.7854C789.592 88.0931 790.513 88.4009 791.405 88.5968Z" fill="#DD9C47"/>
<path d="M819.79 51.8299C819.79 51.5501 822.299 39.7981 822.299 39.7981L820.068 37L817.001 40.6375L811.982 49.0318L819.79 51.8299Z" fill="#093356"/>
<path d="M799.714 72.5358C799.714 72.5358 797.762 73.655 795.81 73.655C793.859 73.655 791.349 73.0954 791.349 73.0954V73.655C791.349 73.655 794.416 74.2146 795.81 74.2146C797.205 74.2146 799.714 72.5358 799.714 72.5358Z" fill="#44392A"/>
<path d="M788.7 88.0652L787.027 89.744C787.027 89.744 792.604 95.8998 807.939 96.7393C823.275 97.5787 829.688 91.4229 829.688 91.4229C829.688 91.4229 828.015 77.4324 828.852 70.9968C829.688 64.5612 829.967 63.1622 830.246 60.6439C830.525 58.1256 828.852 54.7679 828.852 54.7679L824.948 52.8092L829.688 39.6582L826.063 37.6995L821.044 44.4149L817.42 43.0159L820.069 37L816.304 37.4197C816.304 37.4197 812.958 42.7361 812.122 43.5755C811.285 44.4149 808.358 47.6327 808.358 47.6327C808.358 47.6327 799.017 46.6534 793.44 51.69C787.864 56.7265 785.354 66.2401 785.354 66.2401C785.354 66.2401 788.7 67.3593 789.537 67.9189C790.373 68.4785 792.046 71.5564 792.046 71.5564C792.046 71.5564 796.229 70.4372 799.296 70.4372C802.363 70.4372 812.68 73.7949 815.189 75.4738C817.698 77.1526 819.79 78.9714 819.79 78.9714C819.79 78.9714 810.923 93.4935 799.575 91.9825C791.21 90.8633 788.7 88.0652 788.7 88.0652ZM820.069 47.0731C820.069 47.0731 818.953 50.151 818.953 50.4308C818.953 50.4308 817.838 49.8712 816.723 49.5914C815.607 49.3116 813.098 48.752 813.098 48.752L816.165 45.9539L820.069 47.0731Z" fill="url(#paint4_linear)"/>
<path opacity="0.69" d="M821.937 95.3122C822.076 94.0531 821.24 93.0738 820.487 91.9825C819.121 90.0238 818.507 87.0858 819.762 84.8754C820.71 83.2245 822.662 82.497 823.526 80.7622C824.53 78.7475 824.474 76.2292 824.753 74.0467C825.087 71.5564 825.785 69.1221 825.617 66.6038C825.478 64.1415 824.669 61.7911 824.195 59.3847C823.833 57.566 823.247 56.027 822.02 54.628C820.961 53.3968 819.65 52.3895 818.507 51.2703C820.71 51.7739 822.885 52.5574 825.115 52.8932L828.852 54.7679C828.852 54.7679 830.525 58.1256 830.246 60.6439C829.967 63.1622 829.688 64.5612 828.852 70.9968C828.015 77.4324 829.688 91.4229 829.688 91.4229C829.688 91.4229 827.29 93.7173 821.937 95.3122Z" fill="#073C70"/>
<path d="M814.492 62.7425C814.492 62.7425 812.457 62.2108 810.31 61.6232C808.609 61.1475 806.127 59.9444 804.175 60.2242C800.021 60.8118 797.762 63.3021 797.762 63.3021C797.762 63.3021 799.993 69.1781 805.569 69.1781C813.377 69.1781 814.492 62.7425 814.492 62.7425Z" fill="white"/>
<path d="M793.58 62.7425C793.58 62.7425 793.58 59.1049 792.464 57.7059C791.349 56.3068 790.234 56.027 790.234 56.027C790.234 56.027 788.561 58.2655 788.003 59.3848C787.445 60.504 786.888 62.7425 786.888 62.7425C786.888 62.7425 789.118 64.1415 790.234 63.8617C791.349 63.5819 793.58 62.7425 793.58 62.7425Z" fill="white"/>
<g opacity="0.69">
<path opacity="0.69" d="M769.935 128.526C769.628 125.448 769.349 120.411 770.046 115.347C770.855 109.527 772.5 101.72 773.364 97.7466C768.736 101.664 767.481 108.659 767.174 114.451C766.868 120.187 766.115 127.49 761.347 131.38C765.278 132.695 765.223 137.787 764.275 141.677C766.366 142.992 767.537 144.167 767.537 144.167L769.21 135.213L769.712 135.801V135.717L765.864 131.016L769.935 128.526Z" fill="#073C70"/>
<path opacity="0.69" d="M770.325 131.576C770.325 131.576 770.242 131.156 770.158 130.4C770.214 130.792 770.269 131.24 770.325 131.659V131.576Z" fill="#073C70"/>
<path opacity="0.69" d="M769.935 128.526C770.018 129.281 770.074 129.897 770.158 130.4C770.046 129.449 769.963 128.638 769.935 128.526Z" fill="#073C70"/>
<path opacity="0.69" d="M770.604 133.534C770.52 133.086 770.409 132.387 770.325 131.659L769.74 135.717L771.19 137.452C771.162 137.452 770.883 134.933 770.604 133.534Z" fill="#073C70"/>
</g>
<path d="M779.025 159.221L781.06 162.914C781.06 162.914 783.988 164.033 796.256 164.313C808.525 164.593 827.485 162.215 827.485 162.215L827.206 159.277C827.206 159.277 801.387 160.508 792.408 160.592C783.43 160.676 779.025 159.221 779.025 159.221Z" fill="#F8E28F"/>
<path d="M795.141 167.671L801.554 159.277H789.564L795.141 167.671Z" fill="#F8E28F"/>
<path d="M778.439 115.403C778.439 115.403 782.622 117.165 785.912 115.403C789.202 113.64 792.046 110.338 792.046 110.338C792.046 110.338 794.667 115.179 798.849 117.389C803.032 119.6 808.497 118.928 808.497 118.928C808.497 118.928 805.43 127.966 803.673 132.583C801.917 137.2 799.296 144.027 790.066 143.607C780.837 143.16 777.547 133.031 777.547 128.638C777.547 124.245 778.439 115.403 778.439 115.403Z" fill="white"/>
<path d="M779.861 117.501C779.861 117.501 783.458 119.012 786.302 117.501C789.146 115.99 791.6 113.136 791.6 113.136C791.6 113.136 793.858 117.305 797.455 119.208C801.052 121.111 805.792 120.523 805.792 120.523C805.792 120.523 803.144 128.302 801.638 132.303C800.132 136.276 797.846 142.18 789.899 141.789C781.952 141.397 779.108 132.667 779.108 128.889C779.108 125.112 779.861 117.501 779.861 117.501Z" fill="#194D82"/>
<path d="M796.675 140.501L790.485 139.774L790.317 131.268H787.696L787.752 139.774L782.203 138.767C782.203 138.767 782.287 132.135 782.649 127.546C783.012 122.957 783.96 118.285 783.96 118.285L789.23 118.732L787.919 126.231L791.21 126.679L792.52 118.704H798.292C798.292 118.704 797.177 123.573 796.703 129.757C796.229 135.941 796.675 140.501 796.675 140.501Z" fill="white"/>
<path d="M743.558 137.452C743.558 137.452 753.317 136.696 758.614 138.571C763.912 140.445 767.258 143.048 767.258 143.048L769.21 135.213L771.162 137.452C771.162 137.452 772.556 144.447 774.313 149.763C776.097 155.219 783.43 167.111 783.43 167.111C783.43 167.111 779.527 167.951 778.132 168.231C776.738 168.51 774.508 167.391 774.508 166.831C774.508 166.272 777.017 165.153 777.017 165.153V161.795L775.623 159.277C775.623 159.277 770.242 157.766 765.585 155.639C758.893 152.561 743.558 137.452 743.558 137.452Z" fill="#E05432"/>
<path opacity="0.5" d="M774.313 149.763C772.556 144.447 771.162 137.452 771.162 137.452L769.21 135.213L767.453 142.236C767.732 142.376 768.039 142.516 768.318 142.656C769.684 143.411 770.967 144.335 771.859 145.622C772.863 147.077 772.974 148.784 773.281 150.463C773.755 153.093 776.515 156.479 775.623 159.249L777.017 161.767V165.125C777.017 165.125 774.508 166.244 774.508 166.803C774.508 167.363 776.738 168.482 778.133 168.203C779.527 167.923 783.43 167.083 783.43 167.083C783.43 167.083 776.097 155.219 774.313 149.763Z" fill="#992714"/>
<path d="M848.119 213L839.754 203.766C839.754 203.766 836.994 197.415 834.958 192.098C834.289 193.19 833.564 194.253 832.811 195.288C832.7 195.428 832.504 195.484 832.365 195.344C830.636 193.749 828.35 193.385 826.091 193.329C826.175 193.805 826.259 194.393 826.342 195.092C827.039 200.632 832.198 205.725 832.198 205.725L831.919 210.762L848.119 213Z" fill="#E05432"/>
<path opacity="0.5" d="M834.456 197.107C834.958 198.618 835.432 200.157 835.878 201.696C836.045 202.283 836.157 202.899 836.296 203.487C836.519 204.466 836.77 204.774 837.718 205.277C838.778 205.837 839.67 206.341 840.367 207.376C841.315 208.803 841.148 210.426 840.646 211.965L848.119 213L839.754 203.766C839.754 203.766 836.993 197.415 834.958 192.098C834.428 192.938 833.898 193.749 833.341 194.533C833.731 195.4 834.149 196.211 834.456 197.107Z" fill="#992714"/>
<path d="M790.763 194.645C789.481 194.365 788.198 194.225 786.888 194.421C785.661 194.617 783.904 195.064 782.956 195.904C782.845 196.016 782.677 196.016 782.566 195.904C781.813 195.092 781.367 194.113 780.809 193.162C780.586 192.77 780.363 192.406 780.112 192.014C778.857 197.331 777.575 203.207 777.575 203.207L769.21 211.881L785.661 209.362L784.824 205.165C784.824 205.165 788.728 199.849 790.122 196.771C790.429 196.1 790.624 195.372 790.763 194.645Z" fill="#E05432"/>
<path opacity="0.5" d="M790.763 194.645C789.481 194.365 788.198 194.225 786.888 194.421C786.86 194.421 786.86 194.421 786.832 194.421C786.414 196.072 786.274 197.638 786.274 199.373C786.274 201.976 784.657 204.438 782.036 204.997C782.371 206.872 780.447 207.852 778.969 208.607C776.571 209.866 774.229 209.866 771.636 209.698L769.21 211.881L785.661 209.362L784.824 205.165C784.824 205.165 788.728 199.849 790.122 196.771C790.429 196.1 790.624 195.372 790.763 194.645Z" fill="#992714"/>
<path d="M833.62 165.153C834.456 164.033 830.553 162.914 830.553 162.914L831.389 158.997C831.389 158.997 832.504 159.556 833.62 158.997C834.735 158.437 836.129 156.758 836.129 156.758C836.129 156.758 841.427 158.437 846.725 158.157C852.022 157.878 874.886 153.121 874.886 153.121C874.886 153.121 865.406 148.084 861.781 147.525C858.157 146.965 851.465 146.685 851.465 146.685L854.253 138.571C854.253 138.571 840.312 146.405 835.85 148.924C831.389 151.442 826.091 155.359 826.091 158.437C826.091 161.515 828.043 164.313 829.716 165.153C831.389 165.992 833.62 165.153 833.62 165.153Z" fill="#E05432"/>
<path opacity="0.5" d="M861.781 147.525C861.447 147.469 861.084 147.413 860.694 147.385C860.053 147.944 859.411 148.532 858.77 149.092C857.515 150.211 856.344 151.33 854.894 152.197C853.444 153.065 851.855 153.764 850.294 154.436C846.92 155.863 843.462 155.835 839.949 154.94C839.336 154.8 838.806 154.576 838.22 154.324C837.133 153.904 836.464 154.072 835.599 154.912C834.317 156.115 832.811 157.234 832.672 159.109C833.034 159.137 833.369 159.109 833.62 158.997C834.735 158.437 836.129 156.758 836.129 156.758C836.129 156.758 841.427 158.437 846.725 158.157C852.022 157.878 874.886 153.121 874.886 153.121C874.886 153.121 865.406 148.084 861.781 147.525Z" fill="#992714"/>
<defs>
<linearGradient id="paint0_linear" x1="769.21" y1="207.544" x2="883.809" y2="207.544" gradientUnits="userSpaceOnUse">
<stop offset="0.00506811"/>
<stop offset="1" stop-opacity="0.2"/>
</linearGradient>
<linearGradient id="paint1_linear" x1="828.016" y1="189.026" x2="785.174" y2="185.306" gradientUnits="userSpaceOnUse">
<stop offset="0.00506811" stop-color="#003B7C"/>
<stop offset="1" stop-color="#1F77BF"/>
</linearGradient>
<linearGradient id="paint2_linear" x1="860.737" y1="130.192" x2="797.631" y2="126.124" gradientUnits="userSpaceOnUse">
<stop offset="0.00506811" stop-color="#003B7C"/>
<stop offset="1" stop-color="#1F77BF"/>
</linearGradient>
<linearGradient id="paint3_linear" x1="813.341" y1="81.5252" x2="790.849" y2="72.8441" gradientUnits="userSpaceOnUse">
<stop offset="0.00506811" stop-color="#F7C172"/>
<stop offset="1" stop-color="#FFD99C"/>
</linearGradient>
<linearGradient id="paint4_linear" x1="834.511" y1="77.0088" x2="810.41" y2="66.0921" gradientUnits="userSpaceOnUse">
<stop offset="0.00506811" stop-color="#003B7C"/>
<stop offset="1" stop-color="#1F77BF"/>
</linearGradient>
<clipPath id="clip0">
<rect width="742.537" height="250" fill="white"/>
</clipPath>
</defs>
</svg>
