<?xml version="1.0" encoding="utf-8"?>
<!-- Generator: Adobe Illustrator 22.1.0, SVG Export Plug-In . SVG Version: 6.00 Build 0)  -->
<svg version="1.1" id="Layer_1" xmlns="http://www.w3.org/2000/svg" xmlns:xlink="http://www.w3.org/1999/xlink" x="0px" y="0px"
	 viewBox="0 0 343 116" style="enable-background:new 0 0 343 116;" xml:space="preserve">
<style type="text/css">
	.st0{fill:#1962BA;}
</style>
<path class="st0" d="M53,17.9c0,0,5.8,8.1,16.1,12.8c10.3,4.9,17.7,6.2,17.7,6.2v23.7c0,37.3-33.8,38-33.8,38s-33.8-0.5-33.8-38
	V36.9c0,0,7.2-1.2,17.7-6.2C47.3,26,53,17.9,53,17.9z M55,87.4h13.8V36H55v18.1h-6.7V36H34.5v51.3h13.8V66.8H55V87.4z"/>
<path d="M106.6,30.4h7.5v21.8h11V30.4h7.5v55.7h-7.5V58.7h-11v27.6h-7.5V30.4L106.6,30.4z"/>
<path d="M138.9,30.4h19.9v6.5h-12.4v17.6h11v6.3h-11v19h12.4v6.3h-19.9V30.4z"/>
<path d="M163.6,30.4h9.8c4,0,7.2,1.1,9.1,3c2.5,2.5,3.9,6.3,3.9,11.6c0,4-0.7,7.2-1.9,9.7c-1.4,2.5-3.1,3.9-5.8,4.6l10.1,27.1h-7.5
	l-10.2-27.2v27.2h-7.5V30.4L163.6,30.4z M171,55.2c3,0,4.9-0.7,6.1-2.1c1.2-1.4,1.8-3.7,1.8-6.9c0-1.8-0.2-3.2-0.4-4.4
	s-0.7-2.3-1.2-3c-0.5-0.7-1.2-1.4-2.1-1.8c-0.9-0.4-1.9-0.5-3-0.5H171V55.2L171,55.2z"/>
<path d="M219.8,59.8c0,9.8-1.1,16.9-3.3,20.9c-2.1,4.2-5.8,6.2-11,6.2c-5.4,0-9.3-2.3-11.4-6.7c-2.1-4.4-3.3-12.1-3.3-23.2
	c0-9.8,1.1-16.9,3.3-21.1c2.1-4.2,5.9-6.2,11-6.2c4.7,0,8,1.6,10.3,4.7c1.4,2.1,2.6,5.3,3.3,9.1C219.4,47.5,219.8,52.7,219.8,59.8z
	 M212.1,60.5c0-9.7-0.4-16-1.2-19.2c-0.9-3.2-2.6-4.7-5.3-4.7s-4.4,1.4-5.3,4.4c-0.9,3-1.2,8.8-1.2,17.8c0,8.1,0.5,13.9,1.4,17
	c0.9,3,2.6,4.4,5.3,4.4c2.4,0,4.2-1.4,5.3-4.2C211.6,73.1,212.1,68,212.1,60.5z"/>
<path d="M225.2,30.1h7.3v39.4c0,4,0.4,6.7,1.1,8.1c0.7,1.4,2.3,1.9,4.4,1.9s3.7-0.5,4.4-1.8s1.1-3.5,1.1-7.2V30.1h7.3v40.4
	c0,6.2-0.9,10.2-2.8,12.3c-2.3,2.5-5.6,3.7-10.2,3.7c-5.1,0-8.6-1.6-10.5-4.7c-1.4-2.1-2.1-6.3-2.1-12.3V30.1L225.2,30.1z"/>
<path d="M263.2,43.2l0.3,2.6l0.4,5.6l0.4,6.9c0,0.4,0,0.9,0,1.4c0,0.5,0,1.2,0,1.9l0.4,24.3h-7.4V30.4h-0.2h7l7.5,22.3
	c2.1,6.3,4,13,5.8,20c-0.5-4.4-1-8.3-1.4-11.8c-0.4-3.5-0.4-6.9-0.4-9.8V30.4h7.5v55.7h-7L267.8,61c-0.7-2.3-1.6-4.7-2.1-7.2
	c-0.7-2.5-1.4-5.1-1.9-7.7L263.2,43.2z"/>
<path d="M289.5,30.4h7.5v55.7h-7.5V30.4z"/>
<path d="M300.3,30.4h24.3v6.5h-8.4v49.2h-7.4V36.9h-8.6V30.4z"/>
<path class="st0" d="M116.7,111h1.2l-4.9-10.7h-1.1L107,111h1.2l1.3-2.9h6L116.7,111z M109.9,107.2l2.6-5.7l2.6,5.7H109.9z
	 M123.5,102.9c-1.4,0-2.5,0.6-3.1,1.5V103h-1v8h1.1v-4.2c0-1.8,1.1-2.9,2.8-2.9c1.5,0,2.4,0.9,2.4,2.6v4.5h1.1v-4.7
	C126.8,104,125.5,102.9,123.5,102.9z M142,111h1.2l-4.9-10.7h-1.1l-4.9,10.7h1.2l1.3-2.9h6L142,111z M135.2,107.2l2.6-5.7l2.6,5.7
	H135.2z M148,111.1c1.4,0,2.5-0.5,3.1-1.6l-0.8-0.5c-0.5,0.8-1.4,1.2-2.3,1.2c-1.8,0-3-1.2-3-3.1c0-1.9,1.3-3.1,3-3.1
	c0.9,0,1.8,0.4,2.3,1.2l0.8-0.6c-0.6-1.1-1.8-1.6-3.1-1.6c-2.4,0-4.1,1.7-4.1,4.1C143.8,109.4,145.6,111.1,148,111.1z M159.3,111
	h1.3l-3.8-4.7l3.4-3.3H159l-4.8,4.4v-7.7h-1.1V111h1.1v-2.3l1.9-1.7L159.3,111z M162.3,111h1.1V99.7h-1.1V111z M173.4,107
	c0-2.4-1.6-4.1-3.9-4.1c-2.3,0-3.9,1.7-3.9,4.1c0,2.4,1.7,4.1,4.2,4.1c1.3,0,2.4-0.5,3.1-1.3l-0.6-0.7c-0.6,0.7-1.5,1.1-2.5,1.1
	c-1.8,0-3-1.1-3.2-2.8h6.7C173.4,107.2,173.4,107.1,173.4,107z M169.5,103.8c1.6,0,2.7,1.1,2.9,2.7h-5.7
	C166.8,104.9,167.9,103.8,169.5,103.8z M179.7,102.9c-1.4,0-2.5,0.6-3.1,1.5V103h-1v8h1.1v-4.2c0-1.8,1.1-2.9,2.8-2.9
	c1.5,0,2.4,0.9,2.4,2.6v4.5h1.1v-4.7C183,104,181.6,102.9,179.7,102.9z M198.1,111h1.2l-4.9-10.7h-1.1l-4.9,10.7h1.2l1.3-2.9h6
	L198.1,111z M191.3,107.2l2.6-5.7l2.6,5.7H191.3z M206.1,103l-3,6.8l-3-6.8h-1.1l3.6,8h1.1l3.6-8H206.1z M215.5,107
	c0-2.4-1.6-4.1-3.9-4.1c-2.3,0-3.9,1.7-3.9,4.1c0,2.4,1.7,4.1,4.2,4.1c1.3,0,2.4-0.5,3.1-1.3l-0.6-0.7c-0.6,0.7-1.5,1.1-2.5,1.1
	c-1.8,0-3-1.1-3.2-2.8h6.7C215.5,107.2,215.5,107.1,215.5,107z M211.6,103.8c1.6,0,2.7,1.1,2.9,2.7h-5.7
	C208.9,104.9,210,103.8,211.6,103.8z M221.8,102.9c-1.4,0-2.5,0.6-3.1,1.5V103h-1v8h1.1v-4.2c0-1.8,1.1-2.9,2.8-2.9
	c1.5,0,2.4,0.9,2.4,2.6v4.5h1.1v-4.7C225.1,104,223.7,102.9,221.8,102.9z M234.2,103v4.2c0,1.8-1.1,2.9-2.7,2.9
	c-1.5,0-2.4-0.9-2.4-2.6V103H228v4.7c0,2.3,1.3,3.4,3.4,3.4c1.3,0,2.3-0.6,2.9-1.5v1.5h1v-8H234.2z M245.3,107
	c0-2.4-1.6-4.1-3.9-4.1c-2.3,0-3.9,1.7-3.9,4.1c0,2.4,1.7,4.1,4.2,4.1c1.3,0,2.4-0.5,3.1-1.3l-0.6-0.7c-0.6,0.7-1.5,1.1-2.5,1.1
	c-1.8,0-3-1.1-3.2-2.8h6.7C245.3,107.2,245.3,107.1,245.3,107z M241.4,103.8c1.6,0,2.7,1.1,2.9,2.7h-5.7
	C238.7,104.9,239.9,103.8,241.4,103.8z M256.4,111.1c1.6,0,3-0.5,3.9-1.6l-0.7-0.7c-0.9,0.9-1.9,1.3-3.2,1.3c-2.6,0-4.5-1.9-4.5-4.4
	c0-2.5,1.9-4.4,4.5-4.4c1.2,0,2.3,0.4,3.2,1.3l0.7-0.7c-0.9-1-2.4-1.6-3.9-1.6c-3.2,0-5.6,2.3-5.6,5.4
	C250.8,108.8,253.2,111.1,256.4,111.1z M265.4,111.1c2.3,0,4.1-1.7,4.1-4.1c0-2.4-1.7-4.1-4.1-4.1c-2.4,0-4.1,1.7-4.1,4.1
	C261.3,109.4,263,111.1,265.4,111.1z M265.4,110.1c-1.7,0-3-1.3-3-3.1s1.3-3.1,3-3.1c1.7,0,3,1.3,3,3.1S267.1,110.1,265.4,110.1z
	 M281.7,102.9c-1.5,0-2.6,0.7-3.2,1.7c-0.5-1.1-1.5-1.7-2.9-1.7c-1.3,0-2.4,0.6-2.9,1.5V103h-1v8h1.1v-4.2c0-1.8,1.1-2.9,2.7-2.9
	c1.5,0,2.3,0.9,2.3,2.6v4.5h1.1v-4.2c0-1.8,1-2.9,2.7-2.9c1.5,0,2.3,0.9,2.3,2.6v4.5h1.1v-4.7C284.9,104,283.6,102.9,281.7,102.9z
	 M292,102.9c-1.3,0-2.4,0.6-3.1,1.6V103h-1v11h1.1v-4.5c0.7,1,1.8,1.6,3.1,1.6c2.3,0,4-1.6,4-4.1C296,104.6,294.3,102.9,292,102.9z
	 M291.9,110.1c-1.7,0-3-1.3-3-3.1c0-1.9,1.3-3.1,3-3.1c1.7,0,3,1.3,3,3.1C294.9,108.9,293.6,110.1,291.9,110.1z M301,102.9
	c-1.3,0-2.5,0.4-3.3,1.1l0.5,0.8c0.7-0.6,1.6-0.9,2.7-0.9c1.5,0,2.3,0.7,2.3,2.1v0.5h-2.5c-2.3,0-3.1,1-3.1,2.3
	c0,1.4,1.1,2.3,2.9,2.3c1.3,0,2.3-0.5,2.8-1.3v1.3h1v-5C304.2,103.9,303,102.9,301,102.9z M300.6,110.2c-1.3,0-2-0.6-2-1.5
	c0-0.8,0.5-1.4,2.1-1.4h2.5v1.3C302.7,109.6,301.8,110.2,300.6,110.2z M311.2,102.9c-1.4,0-2.5,0.6-3.1,1.5V103h-1v8h1.1v-4.2
	c0-1.8,1.1-2.9,2.8-2.9c1.5,0,2.4,0.9,2.4,2.6v4.5h1.1v-4.7C314.5,104,313.2,102.9,311.2,102.9z M323,103l-3,6.8l-3-6.8h-1.1l3.6,8
	l-0.4,0.8c-0.5,1-0.9,1.3-1.7,1.3c-0.6,0-1.1-0.2-1.5-0.6l-0.5,0.8c0.5,0.5,1.2,0.7,2,0.7c1.1,0,2-0.5,2.7-2.1l4-9H323z"/>
</svg>
