<svg width="118" height="118" viewBox="0 0 118 118" fill="none" xmlns="http://www.w3.org/2000/svg">
<circle cx="58.7137" cy="58.7137" r="58.1197" stroke="#1962BA" stroke-width="1.18788"/>
<g clip-path="url(#clip0)">
<path opacity="0.72" d="M42.9114 83.6693L50.1816 84H57.204L57.4518 83.4213H61.5826L66.2918 84L65.2177 83.0906L74.8838 82.5946L74.4708 81.7679H76.8666L70.4226 80.7758L55.2212 81.5199L46.1004 82.3879L42.9114 83.6693Z" fill="url(#paint0_linear)"/>
<path d="M66.2918 84L63.8133 81.2719C63.8133 81.2719 62.1279 77.4029 61.8305 76.1463C61.2522 73.6661 60.426 71.0207 60.426 71.0207L60.1782 68.6315L52.0818 69.1192H46.3813L47.1248 70.442V72.0127C47.1248 72.0127 46.9596 74.5755 46.5465 76.1463C46.1334 77.717 45.3899 81.1065 45.3899 81.1065L42.9114 83.6693L47.7857 82.9253L47.5379 81.6852C47.5379 81.6852 48.6945 80.1145 49.1076 79.2051C49.5207 78.2957 49.2728 77.1383 49.2728 77.1383L51.6687 72.8394C51.6687 72.8394 52.4949 72.9221 54.0646 72.9221C55.469 72.9221 56.3778 72.9221 56.3778 72.9221L59.6825 77.717C59.6825 77.717 59.7651 78.0477 59.8477 78.7091C60.0542 80.3459 61.5826 81.8506 61.5826 81.8506L61.5 83.3386L66.2918 84Z" fill="url(#paint1_linear)"/>
<path opacity="0.69" d="M58.088 69.5657C58.1624 69.9459 58.1376 70.3262 58.1541 70.7148C58.1789 71.2191 58.4185 71.5332 58.7655 71.8722C59.3025 72.393 59.823 72.856 60.1204 73.5587C60.4591 74.3523 60.1286 75.2121 60.3269 76.0471C60.5417 76.9316 60.9796 77.6261 61.5662 78.304C62.0206 78.8331 62.508 79.3456 62.7806 79.9987C63.0863 80.7428 63.1689 81.5529 63.425 82.3052C63.5903 82.793 63.8051 83.2725 64.0529 83.7272L66.2918 84L63.8133 81.2719C63.8133 81.2719 62.128 77.4029 61.8305 76.1463C61.2522 73.6661 60.4261 71.0207 60.4261 71.0207L60.1782 68.6315L57.8071 68.772C57.9393 69.02 58.0385 69.2846 58.088 69.5657Z" fill="#073C70"/>
<path opacity="0.69" d="M51.4045 72.7733C50.6692 72.5914 49.9009 72.5005 49.1821 72.2607C49.5456 73.2776 49.6448 74.5011 49.2978 75.518C49.1325 76.0057 48.8764 76.4604 48.6368 76.9068C48.3146 77.5103 48.0585 78.1138 47.9016 78.7835C47.7528 79.42 47.6372 80.0731 47.4306 80.6932C47.2902 81.1065 47.1498 81.5199 47.0423 81.9415C46.9432 82.33 46.8936 82.7351 46.9184 83.1072L47.7859 82.9253L47.538 81.6852C47.538 81.6852 48.6947 80.1145 49.1078 79.2051C49.5208 78.2957 49.273 77.1383 49.273 77.1383L51.6689 72.8394C51.6689 72.8394 51.6689 72.8394 51.6771 72.8394C51.5862 72.8146 51.4954 72.7898 51.4045 72.7733Z" fill="#073C70"/>
<path d="M46.3813 47.7075C46.3813 47.7075 47.1249 61.6789 46.3813 63.0843C45.6378 64.4897 43.5724 68.9539 43.5724 68.9539C43.5724 68.9539 42.8288 68.7059 45.803 69.0366C48.7772 69.3673 54.3125 68.1272 56.2953 67.3005C58.278 66.4738 60.7565 65.7297 62.6567 65.6471C64.5569 65.5644 68.6051 64.7377 73.3142 62.0095C78.0233 59.2814 79.6756 56.8013 79.6756 56.8013L71.414 53.1638L65.7961 47.7075L55.2212 49.1956L46.3813 47.7075Z" fill="#441616"/>
<path d="M69.8195 51.7583C69.2164 51.0143 68.5224 50.0223 67.4154 49.6089C66.3083 49.1955 62.4832 49.1955 62.4832 49.1955L52.2388 48.8649L46.373 47.7075C46.373 47.7075 45.1338 47.7075 43.2336 48.2035C41.3335 48.6995 35.1455 59.9428 35.1455 59.9428L36.0543 61.7615C36.0543 61.7615 37.7892 61.6789 39.6894 62.1749C41.383 62.613 42.4157 63.663 42.4157 63.663L42.9114 61.0175L43.4897 61.6789L41.92 59.7774L43.1262 59.0417L43.4897 61.6789C43.4897 61.6789 43.9028 63.911 44.4811 65.4817C45.0595 67.0525 45.6378 68.1272 45.6378 68.1272C45.6378 68.1272 48.2815 68.6232 53.2385 68.5405C58.1954 68.4579 60.0956 68.1272 60.0956 68.1272C60.0956 68.1272 60.3434 64.407 60.4261 62.3402C60.5087 60.2735 63.8959 57.2973 63.8959 57.2973C63.8959 57.2973 65.2178 58.62 66.6223 59.6121C68.0268 60.6041 69.6791 61.4308 69.6791 61.4308C69.6791 61.4308 68.5224 61.7615 68.2746 62.0922C68.0268 62.4229 67.2832 64.407 67.2832 64.407L72.3228 65.3164L77.1145 62.0922C77.1145 62.0922 70.4226 52.5024 69.8195 51.7583Z" fill="url(#paint2_linear)"/>
<path opacity="0.69" d="M63.4334 56.9087C63.2764 56.7847 63.0781 56.7021 62.8881 56.6525C62.3098 56.5037 61.7397 56.7103 61.2358 56.9914C60.8227 57.2229 60.5005 57.5536 60.1452 57.8595C59.9387 58.0331 59.7156 58.1488 59.4843 58.2893C59.2199 58.4547 59.0382 58.6366 59.0878 58.9673C59.1125 59.1161 59.1538 59.2566 59.1952 59.4054C59.253 59.6617 59.2695 59.918 59.2695 60.1825C59.2695 60.7943 59.1786 61.4391 58.8895 61.993C58.5755 62.5882 58.4929 63.8862 58.1046 64.4153C57.4437 65.3246 56.791 65.3825 55.874 66.6474C55.4692 67.2013 54.6017 68.5157 54.2217 68.6315C54.2217 68.6315 53.4451 68.6728 55.874 68.6315C58.3029 68.5901 60.0874 68.1355 60.0874 68.1355C60.0874 68.1355 60.3353 64.4153 60.4179 62.3485C60.4922 60.5545 63.0533 58.0744 63.7308 57.4544C63.673 57.2229 63.6316 57.0576 63.4334 56.9087Z" fill="#073C70"/>
<path opacity="0.69" d="M69.8195 51.7583C69.2164 51.0143 68.5224 50.0222 67.4154 49.6089C66.3083 49.1955 62.4832 49.1955 62.4832 49.1955L58.5754 49.0715C58.7159 49.551 58.9803 49.9644 59.4429 50.2455C60.0212 50.6009 60.7235 50.7167 61.3844 50.7663C62.7971 50.882 64.2264 50.758 65.6143 51.0556C66.4075 51.221 67.151 51.5351 67.7706 52.056C68.4481 52.6264 69.0181 53.3043 69.5386 54.007C70.0591 54.718 70.4804 55.4537 70.9018 56.2308C71.3479 57.0575 71.8436 57.7685 72.678 58.2315C73.3885 58.6283 74.0329 58.9838 74.5534 59.6286C75.0409 60.2321 75.4126 60.9183 75.677 61.6375C75.6935 61.6706 75.6687 61.7119 75.6357 61.7284C74.8839 62.3071 74.1238 62.8858 73.3307 63.4067C72.645 63.8614 71.9262 64.2251 71.2157 64.6302C71.0092 64.7459 70.8109 64.8699 70.6209 65.0022L72.3228 65.3164L77.1145 62.0922C77.1145 62.0922 70.4226 52.5024 69.8195 51.7583Z" fill="#073C70"/>
<path d="M45.1421 47.7075C45.1421 47.7075 46.4639 46.7981 48.0337 46.4674C49.6034 46.1367 55.8244 46.5914 55.8244 46.5914C55.8244 46.5914 61.6405 45.8226 64.2264 46.4674C68.192 47.4594 69.6543 51.4938 71.9923 53.2464C73.6447 54.4865 81.2454 54.9825 81.2454 54.9825L83.1455 58.2893C83.1455 58.2893 76.1231 58.9507 73.0664 56.3218C72.9094 56.1895 70.4639 52.2544 68.6877 50.4356C67.4898 49.2121 66.2257 49.5014 66.2257 49.5014C66.2257 49.5014 65.4244 48.8401 64.8874 48.7822C62.5741 48.5342 61.0044 52.089 56.2127 52.089C53.2385 52.089 51.1896 49.2947 51.1896 49.2947C51.1896 49.2947 50.2643 50.3529 48.3641 49.9396C46.4639 49.5262 45.1421 47.7075 45.1421 47.7075Z" fill="#E05432"/>
<path opacity="0.5" d="M81.2452 54.9825C81.2452 54.9825 73.6445 54.4865 71.9922 53.2464C70.7447 52.3123 69.7533 50.7332 68.4975 49.3196C67.9522 49.3361 67.4648 49.1212 67.0187 48.807C66.4817 48.435 66.0025 48.0134 65.3333 47.8728C64.565 47.7157 63.7719 47.8728 63.0283 48.063C62.5987 48.1704 62.2269 48.3606 61.8304 48.4763C61.3925 48.6995 60.9877 48.9558 60.6077 49.3113C60.0459 49.8321 56.609 51.6592 55.882 51.6013C54.6263 51.5021 53.2383 50.9151 52.2469 50.0305C51.7264 49.5593 51.8173 48.6003 51.6108 47.9142C51.4621 47.4181 51.4951 46.889 51.5612 46.3765C50.545 46.3434 49.8758 48.5673 49.5949 48.8731C48.4383 50.1132 46.8686 49.1212 45.1584 47.7488C45.3319 47.9803 46.596 49.5676 48.3557 49.9479C50.2559 50.3612 51.1812 49.303 51.1812 49.303C51.1812 49.303 53.2383 52.089 56.2125 52.089C61.0042 52.089 62.5739 48.5342 64.8872 48.7822C65.4242 48.8401 66.2256 49.5014 66.2256 49.5014C66.2256 49.5014 67.4813 49.2121 68.6875 50.4356C70.4638 52.2544 72.9092 56.1813 73.0662 56.3218C76.123 58.9507 83.1454 58.2894 83.1454 58.2894L81.2452 54.9825Z" fill="#992714"/>
<path d="M59.7155 37.7043L60.5416 37.2083L61.3678 33.0747L60.7151 32.7275L58.5588 36.3816L59.7155 37.7043Z" fill="#093356"/>
<path d="M59.2199 43.8219C59.2199 43.8219 58.3937 48.4515 55.6674 48.5342C52.941 48.6169 49.719 48.3688 48.7276 47.0461C47.7362 45.7234 47.4884 44.9793 47.3231 43.8219C47.1579 42.6645 47.7197 40.5399 47.7197 40.5399L54.3455 39.4404L59.2199 43.8219Z" fill="url(#paint3_linear)"/>
<path opacity="0.49" d="M49.4877 47.2445C50.1155 47.3851 50.9995 47.5587 51.6192 47.4595C52.9327 47.2528 54.0068 46.8808 55.1386 46.1037C56.3613 45.2604 57.1544 43.7393 57.4188 42.2099L59.2198 43.8302C59.2198 43.8302 58.3937 48.4598 55.6673 48.5424C52.941 48.6251 49.719 48.3771 48.7276 47.0544C48.7111 47.0378 48.7028 47.0213 48.6863 47.0048C48.9507 47.0957 49.2233 47.1866 49.4877 47.2445Z" fill="#DD9C47"/>
<path d="M57.898 36.3816C57.898 36.2989 58.6415 32.8267 58.6415 32.8267L57.9806 32L57.0718 33.0747L55.5847 35.5548L57.898 36.3816Z" fill="#093356"/>
<path d="M51.9497 42.4992C51.9497 42.4992 51.3714 42.8299 50.7931 42.8299C50.2147 42.8299 49.4712 42.6646 49.4712 42.6646V42.8299C49.4712 42.8299 50.38 42.9952 50.7931 42.9952C51.2061 42.9952 51.9497 42.4992 51.9497 42.4992Z" fill="#44392A"/>
<path d="M48.6862 47.0874L48.1905 47.5835C48.1905 47.5835 49.8428 49.4022 54.3867 49.6502C58.9306 49.8983 60.8308 48.0795 60.8308 48.0795C60.8308 48.0795 60.3351 43.9459 60.5829 42.0445C60.8308 40.1431 60.9134 39.7297 60.996 38.9857C61.0786 38.2417 60.5829 37.2496 60.5829 37.2496L59.4263 36.6709L60.8308 32.7854L59.7568 32.2067L58.2697 34.1908L57.1957 33.7774L57.9805 32L56.8652 32.124C56.8652 32.124 55.8738 33.6948 55.626 33.9428C55.3781 34.1908 54.5107 35.1415 54.5107 35.1415C54.5107 35.1415 51.743 34.8521 50.0907 36.3402C48.4384 37.8283 47.6948 40.6391 47.6948 40.6391C47.6948 40.6391 48.6862 40.9698 48.9341 41.1351C49.1819 41.3005 49.6776 42.2099 49.6776 42.2099C49.6776 42.2099 50.9169 41.8792 51.8256 41.8792C52.7344 41.8792 55.7912 42.8712 56.5348 43.3672C57.2783 43.8633 57.8979 44.4006 57.8979 44.4006C57.8979 44.4006 55.2707 48.6913 51.9082 48.2448C49.4298 47.9141 48.6862 47.0874 48.6862 47.0874ZM57.9805 34.9762C57.9805 34.9762 57.6501 35.8855 57.6501 35.9682C57.6501 35.9682 57.3196 35.8029 56.9891 35.7202C56.6587 35.6375 55.9151 35.4722 55.9151 35.4722L56.8239 34.6455L57.9805 34.9762Z" fill="url(#paint4_linear)"/>
<path opacity="0.69" d="M58.534 49.2286C58.5753 48.8566 58.3275 48.5673 58.1044 48.2448C57.6996 47.6661 57.5178 46.7981 57.8896 46.145C58.1705 45.6572 58.7488 45.4423 59.0049 44.9297C59.3023 44.3345 59.2858 43.5905 59.3684 42.9456C59.4676 42.2099 59.6741 41.4906 59.6245 40.7466C59.5832 40.0191 59.3436 39.3246 59.2032 38.6137C59.0958 38.0763 58.9223 37.6216 58.5588 37.2083C58.2448 36.8445 57.8565 36.5469 57.5178 36.2162C58.1705 36.365 58.8149 36.5965 59.4758 36.6957L60.5829 37.2496C60.5829 37.2496 61.0786 38.2417 60.996 38.9857C60.9134 39.7297 60.8307 40.1431 60.5829 42.0445C60.335 43.9459 60.8307 48.0795 60.8307 48.0795C60.8307 48.0795 60.1202 48.7574 58.534 49.2286Z" fill="#073C70"/>
<path d="M56.3283 39.6057C56.3283 39.6057 55.7252 39.4486 55.0891 39.275C54.5851 39.1345 53.8498 38.779 53.2715 38.8617C52.0405 39.0353 51.3713 39.7711 51.3713 39.7711C51.3713 39.7711 52.0323 41.5071 53.6846 41.5071C55.9978 41.5071 56.3283 39.6057 56.3283 39.6057Z" fill="white"/>
<path d="M50.1322 39.6057C50.1322 39.6057 50.1322 38.531 49.8017 38.1176C49.4713 37.7043 49.1408 37.6216 49.1408 37.6216C49.1408 37.6216 48.6451 38.283 48.4799 38.6137C48.3146 38.9443 48.1494 39.6057 48.1494 39.6057C48.1494 39.6057 48.8103 40.0191 49.1408 39.9364C49.4713 39.8537 50.1322 39.6057 50.1322 39.6057Z" fill="white"/>
<g opacity="0.69">
<path opacity="0.69" d="M43.1264 59.0417C43.0355 58.1323 42.9529 56.6442 43.1594 55.1479C43.399 53.4283 43.8864 51.1218 44.1425 49.9479C42.7711 51.1053 42.3993 53.172 42.3085 54.8833C42.2176 56.5781 41.9945 58.7358 40.5818 59.8849C41.7467 60.2735 41.7302 61.7781 41.4493 62.9272C42.0689 63.3157 42.4159 63.663 42.4159 63.663L42.9116 61.0175L43.0603 61.1911V61.1663L41.9202 59.7774L43.1264 59.0417Z" fill="#073C70"/>
<path opacity="0.69" d="M43.242 59.9428C43.242 59.9428 43.2172 59.8188 43.1924 59.5956C43.2089 59.7113 43.2254 59.8436 43.242 59.9676V59.9428Z" fill="#073C70"/>
<path opacity="0.69" d="M43.1265 59.0417C43.1512 59.2649 43.1678 59.4467 43.1926 59.5955C43.1595 59.3145 43.1347 59.0747 43.1265 59.0417Z" fill="#073C70"/>
<path opacity="0.69" d="M43.3247 60.5215C43.2999 60.3892 43.2669 60.1825 43.2421 59.9676L43.0686 61.1663L43.4982 61.6789C43.4899 61.6789 43.4073 60.9348 43.3247 60.5215Z" fill="#073C70"/>
</g>
<path d="M45.8196 68.1106L46.4227 69.2019C46.4227 69.2019 47.2901 69.5326 50.9253 69.6152C54.5604 69.6979 60.1783 68.9952 60.1783 68.9952L60.0957 68.1272C60.0957 68.1272 52.4454 68.4909 49.7852 68.5157C47.1249 68.5405 45.8196 68.1106 45.8196 68.1106Z" fill="#F8E28F"/>
<path d="M50.5947 70.6073L52.4949 68.1272H48.9424L50.5947 70.6073Z" fill="#F8E28F"/>
<path d="M45.646 55.1644C45.646 55.1644 46.8852 55.6852 47.8601 55.1644C48.8349 54.6436 49.6776 53.668 49.6776 53.668C49.6776 53.668 50.4542 55.0982 51.6935 55.7513C52.9327 56.4044 54.552 56.206 54.552 56.206C54.552 56.206 53.6432 58.8763 53.1227 60.2404C52.6022 61.6044 51.8257 63.6216 49.0911 63.4976C46.3565 63.3653 45.3816 60.3727 45.3816 59.0747C45.3816 57.7768 45.646 55.1644 45.646 55.1644Z" fill="white"/>
<path d="M46.0673 55.7844C46.0673 55.7844 47.1331 56.2308 47.9757 55.7844C48.8184 55.338 49.5454 54.4948 49.5454 54.4948C49.5454 54.4948 50.2146 55.7265 51.2804 56.2887C52.3461 56.8509 53.7506 56.6773 53.7506 56.6773C53.7506 56.6773 52.9658 58.9755 52.5196 60.1577C52.0735 61.3316 51.396 63.076 49.0415 62.9603C46.6869 62.8445 45.8442 60.2652 45.8442 59.1491C45.8442 58.0331 46.0673 55.7844 46.0673 55.7844Z" fill="#194D82"/>
<path d="M51.049 62.58L49.2149 62.365L49.1654 59.8518H48.3888L48.4053 62.365L46.7612 62.0674C46.7612 62.0674 46.786 60.1081 46.8934 58.7523C47.0008 57.3965 47.2817 56.0159 47.2817 56.0159L48.8432 56.1482L48.4549 58.3637L49.4297 58.496L49.818 56.1399H51.5282C51.5282 56.1399 51.1977 57.5784 51.0573 59.4054C50.9168 61.2324 51.049 62.58 51.049 62.58Z" fill="white"/>
<path d="M35.3108 61.6789C35.3108 61.6789 38.2024 61.4556 39.7721 62.0095C41.3418 62.5634 42.3332 63.3323 42.3332 63.3323L42.9115 61.0175L43.4898 61.6789C43.4898 61.6789 43.9029 63.7456 44.4234 65.3164C44.9521 66.9285 47.1249 70.442 47.1249 70.442C47.1249 70.442 45.9683 70.69 45.5552 70.7727C45.1421 70.8553 44.4812 70.5246 44.4812 70.3593C44.4812 70.194 45.2247 69.8633 45.2247 69.8633V68.8712L44.8117 68.1272C44.8117 68.1272 43.2172 67.6808 41.8375 67.0525C39.8547 66.1431 35.3108 61.6789 35.3108 61.6789Z" fill="#E05432"/>
<path opacity="0.5" d="M44.4232 65.3164C43.9027 63.7456 43.4897 61.6789 43.4897 61.6789L42.9114 61.0175L42.3909 63.0925C42.4735 63.1339 42.5644 63.1752 42.647 63.2165C43.0518 63.4397 43.4318 63.7126 43.6962 64.0928C43.9936 64.5227 44.0267 65.027 44.1175 65.523C44.258 66.3002 45.0759 67.3005 44.8115 68.1189L45.2246 68.863V69.855C45.2246 69.855 44.4811 70.1857 44.4811 70.351C44.4811 70.5164 45.142 70.8471 45.5551 70.7644C45.9682 70.6817 47.1248 70.4337 47.1248 70.4337C47.1248 70.4337 44.952 66.9285 44.4232 65.3164Z" fill="#992714"/>
<path d="M66.2918 84L63.8133 81.2719C63.8133 81.2719 62.9954 79.3952 62.3923 77.8245C62.1941 78.1469 61.9793 78.461 61.7562 78.7669C61.7231 78.8083 61.6653 78.8248 61.624 78.7835C61.1118 78.3122 60.4343 78.2048 59.7651 78.1882C59.7899 78.3288 59.8147 78.5024 59.8395 78.7091C60.046 80.3459 61.5744 81.8506 61.5744 81.8506L61.4918 83.3386L66.2918 84Z" fill="#E05432"/>
<path opacity="0.5" d="M62.2436 79.3043C62.3923 79.7507 62.5327 80.2054 62.6649 80.6601C62.7145 80.8337 62.7475 81.0156 62.7888 81.1892C62.8549 81.4785 62.9293 81.5695 63.2102 81.7183C63.5241 81.8836 63.7885 82.0324 63.995 82.3383C64.2759 82.7599 64.2263 83.2394 64.0776 83.6941L66.2917 84L63.8133 81.2719C63.8133 81.2719 62.9954 79.3952 62.3923 77.8245C62.2353 78.0725 62.0783 78.3122 61.9131 78.5437C62.0287 78.8 62.1527 79.0397 62.2436 79.3043Z" fill="#992714"/>
<path d="M49.2976 78.5768C48.9176 78.4941 48.5375 78.4528 48.1492 78.5107C47.7857 78.5685 47.2653 78.7008 46.9844 78.9488C46.9513 78.9819 46.9017 78.9819 46.8687 78.9488C46.6456 78.7091 46.5134 78.4197 46.3482 78.1386C46.2821 78.0229 46.216 77.9154 46.1417 77.7997C45.7699 79.3704 45.3899 81.1065 45.3899 81.1065L42.9114 83.6693L47.7857 82.9253L47.5379 81.6852C47.5379 81.6852 48.6945 80.1145 49.1076 79.2051C49.1985 79.0067 49.2563 78.7917 49.2976 78.5768Z" fill="#E05432"/>
<path opacity="0.5" d="M49.2976 78.5768C48.9176 78.4941 48.5375 78.4528 48.1492 78.5106C48.141 78.5106 48.141 78.5106 48.1327 78.5106C48.0088 78.9984 47.9675 79.4614 47.9675 79.9739C47.9675 80.7428 47.4883 81.4703 46.7117 81.6356C46.8109 82.1895 46.2408 82.4789 45.8029 82.7021C45.0924 83.0741 44.3985 83.0741 43.6301 83.0245L42.9114 83.6693L47.7857 82.9253L47.5379 81.6852C47.5379 81.6852 48.6945 80.1145 49.1076 79.2051C49.1985 79.0067 49.2563 78.7917 49.2976 78.5768Z" fill="#992714"/>
<path d="M61.9958 69.8633C62.2436 69.5326 61.087 69.2019 61.087 69.2019L61.3348 68.0445C61.3348 68.0445 61.6653 68.2099 61.9958 68.0445C62.3262 67.8792 62.7393 67.3832 62.7393 67.3832C62.7393 67.3832 64.309 67.8792 65.8787 67.7965C67.4484 67.7138 74.223 66.3084 74.223 66.3084C74.223 66.3084 71.414 64.8204 70.34 64.655C69.266 64.4897 67.2832 64.407 67.2832 64.407L68.1094 62.0096C68.1094 62.0096 63.9786 64.3243 62.6567 65.0684C61.3348 65.8124 59.7651 66.9698 59.7651 67.8792C59.7651 68.7886 60.3435 69.6153 60.8391 69.8633C61.3348 70.1113 61.9958 69.8633 61.9958 69.8633Z" fill="#E05432"/>
<path opacity="0.5" d="M70.34 64.655C70.2408 64.6385 70.1334 64.6219 70.0178 64.6137C69.8278 64.779 69.6377 64.9526 69.4477 65.118C69.0759 65.4487 68.729 65.7793 68.2994 66.0356C67.8697 66.2919 67.3988 66.4986 66.9362 66.697C65.9365 67.1186 64.9121 67.1103 63.8711 66.8458C63.6894 66.8045 63.5324 66.7383 63.3589 66.6639C63.0367 66.5399 62.8384 66.5895 62.5823 66.8375C62.2023 67.193 61.7562 67.5237 61.7148 68.0776C61.8222 68.0859 61.9214 68.0776 61.9957 68.0445C62.3262 67.8792 62.7393 67.3832 62.7393 67.3832C62.7393 67.3832 64.309 67.8792 65.8787 67.7965C67.4484 67.7138 74.2229 66.3084 74.2229 66.3084C74.2229 66.3084 71.414 64.8204 70.34 64.655Z" fill="#992714"/>
</g>
<defs>
<linearGradient id="paint0_linear" x1="42.9114" y1="82.3879" x2="76.8666" y2="82.3879" gradientUnits="userSpaceOnUse">
<stop offset="0.00506811"/>
<stop offset="1" stop-opacity="0.2"/>
</linearGradient>
<linearGradient id="paint1_linear" x1="60.3353" y1="76.9167" x2="47.642" y2="75.8116" gradientUnits="userSpaceOnUse">
<stop offset="0.00506811" stop-color="#003B7C"/>
<stop offset="1" stop-color="#1F77BF"/>
</linearGradient>
<linearGradient id="paint2_linear" x1="70.0306" y1="59.5341" x2="51.3328" y2="58.3253" gradientUnits="userSpaceOnUse">
<stop offset="0.00506811" stop-color="#003B7C"/>
<stop offset="1" stop-color="#1F77BF"/>
</linearGradient>
<linearGradient id="paint3_linear" x1="55.9872" y1="45.1552" x2="49.3278" y2="42.5776" gradientUnits="userSpaceOnUse">
<stop offset="0.00506811" stop-color="#F7C172"/>
<stop offset="1" stop-color="#FFD99C"/>
</linearGradient>
<linearGradient id="paint4_linear" x1="62.2597" y1="43.8208" x2="55.1256" y2="40.5801" gradientUnits="userSpaceOnUse">
<stop offset="0.00506811" stop-color="#003B7C"/>
<stop offset="1" stop-color="#1F77BF"/>
</linearGradient>
<clipPath id="clip0">
<rect x="35.1455" y="32" width="48" height="52" fill="white"/>
</clipPath>
</defs>
</svg>
