<svg width="162" height="176" viewBox="0 0 162 176" fill="none" xmlns="http://www.w3.org/2000/svg">
<path opacity="0.72" d="M26.21 174.881L50.747 176H74.4475L75.284 174.041H89.2255L105.119 176L101.494 172.922L134.117 171.243L132.723 168.445H140.809L119.06 165.087L67.7556 167.606L36.9728 170.544L26.21 174.881Z" fill="url(#paint0_linear)"/>
<path d="M105.119 176L96.7539 166.766C96.7539 166.766 91.0657 153.671 90.0619 149.418C88.1101 141.024 85.3218 132.07 85.3218 132.07L84.4853 123.983L57.16 125.634H37.9208L40.4303 130.111V135.428C40.4303 135.428 39.8726 144.102 38.4785 149.418C37.0843 154.734 34.5748 166.207 34.5748 166.207L26.21 174.881L42.6609 172.362L41.8244 168.165C41.8244 168.165 45.728 162.849 47.1222 159.771C48.5163 156.693 47.6798 152.776 47.6798 152.776L55.7659 138.226C55.7659 138.226 58.5542 138.506 63.852 138.506C68.5921 138.506 71.6592 138.506 71.6592 138.506L82.8124 154.734C82.8124 154.734 83.0912 155.854 83.37 158.092C84.0671 163.632 89.2255 168.725 89.2255 168.725L88.9466 173.762L105.119 176Z" fill="url(#paint1_linear)"/>
<path opacity="0.69" d="M77.4309 127.145C77.6819 128.432 77.5982 129.72 77.654 131.035C77.7376 132.741 78.5463 133.805 79.7173 134.952C81.5297 136.715 83.2864 138.282 84.2901 140.66C85.4333 143.346 84.318 146.256 84.9872 149.082C85.7122 152.076 87.19 154.427 89.1697 156.721C90.7032 158.512 92.3483 160.247 93.2685 162.457C94.3001 164.976 94.579 167.718 95.4433 170.264C96.001 171.915 96.7259 173.538 97.5624 175.077L105.119 176L96.7538 166.766C96.7538 166.766 91.0657 153.671 90.0619 149.418C88.1101 141.024 85.3218 132.07 85.3218 132.07L84.4853 123.983L76.4829 124.459C76.929 125.299 77.2636 126.194 77.4309 127.145Z" fill="#073C70"/>
<path opacity="0.69" d="M54.8737 138.002C52.3921 137.386 49.799 137.079 47.3732 136.267C48.6 139.709 48.9346 143.85 47.7635 147.292C47.2059 148.942 46.3415 150.481 45.5329 151.992C44.4455 154.035 43.5811 156.078 43.0513 158.344C42.5494 160.499 42.159 162.709 41.462 164.808C40.988 166.207 40.514 167.606 40.1515 169.033C39.8169 170.348 39.6496 171.719 39.7332 172.978L42.6609 172.362L41.8245 168.165C41.8245 168.165 45.7281 162.849 47.1222 159.771C48.5164 156.693 47.6799 152.776 47.6799 152.776L55.7659 138.226C55.7659 138.226 55.7659 138.226 55.7938 138.226C55.4871 138.142 55.1804 138.058 54.8737 138.002Z" fill="#073C70"/>
<path d="M37.9209 53.1638C37.9209 53.1638 40.4304 100.452 37.9209 105.208C35.4114 109.965 28.4407 125.075 28.4407 125.075C28.4407 125.075 25.9312 124.235 35.9691 125.355C46.007 126.474 64.6886 122.277 71.3805 119.479C78.0724 116.68 86.4373 114.162 92.8503 113.882C99.2634 113.603 112.926 110.804 128.819 101.571C144.713 92.337 150.289 83.9428 150.289 83.9428L122.406 71.6312L103.446 53.1638L67.7557 58.2003L37.9209 53.1638Z" fill="#441616"/>
<path d="M117.025 66.8744C114.989 64.3561 112.647 60.9984 108.911 59.5994C105.175 58.2003 92.2647 58.2003 92.2647 58.2003L57.6899 57.0811L37.8929 53.1638C37.8929 53.1638 33.7105 53.1638 27.2974 54.8426C20.8843 56.5215 0 94.5755 0 94.5755L3.06713 100.731C3.06713 100.731 8.92255 100.452 15.3356 102.13C21.0516 103.613 24.537 107.167 24.537 107.167L26.21 98.213L28.1618 100.452L22.864 94.0159L26.9349 91.5256L28.1618 100.452C28.1618 100.452 29.5559 108.006 31.5078 113.323C33.4596 118.639 35.4114 122.277 35.4114 122.277C35.4114 122.277 44.3339 123.955 61.0637 123.676C77.7935 123.396 84.2066 122.277 84.2066 122.277C84.2066 122.277 85.043 109.685 85.3219 102.69C85.6007 95.6948 97.0327 85.6216 97.0327 85.6216C97.0327 85.6216 101.494 90.0986 106.234 93.4563C110.974 96.814 116.551 99.6121 116.551 99.6121C116.551 99.6121 112.647 100.731 111.811 101.851C110.974 102.97 108.465 109.685 108.465 109.685L125.473 112.763L141.645 101.851C141.645 101.851 119.06 69.3927 117.025 66.8744Z" fill="url(#paint2_linear)"/>
<path opacity="0.69" d="M95.4711 84.3065C94.9414 83.8868 94.2722 83.607 93.6309 83.4391C91.6791 82.9355 89.7551 83.635 88.0543 84.5863C86.6601 85.3698 85.5727 86.489 84.3737 87.5243C83.6767 88.1119 82.9238 88.5037 82.1431 88.9793C81.2508 89.539 80.6374 90.1545 80.8047 91.2738C80.8884 91.7774 81.0278 92.2531 81.1672 92.7568C81.3624 93.6242 81.4181 94.4916 81.4181 95.387C81.4181 97.4576 81.1114 99.6401 80.1355 101.515C79.076 103.529 78.7971 107.922 77.4866 109.713C75.256 112.791 73.0532 112.987 69.9582 117.268C68.592 119.143 65.6643 123.592 64.3816 123.983C64.3816 123.983 61.7607 124.123 69.9582 123.983C78.1558 123.844 84.1786 122.305 84.1786 122.305C84.1786 122.305 85.015 109.713 85.2939 102.718C85.5448 96.6461 94.1885 88.2518 96.4749 86.1533C96.2798 85.3698 96.1403 84.8102 95.4711 84.3065Z" fill="#073C70"/>
<path opacity="0.69" d="M117.025 66.8744C114.989 64.3561 112.647 60.9984 108.911 59.5994C105.175 58.2003 92.2648 58.2003 92.2648 58.2003L79.0762 57.7806C79.5502 59.4035 80.4424 60.8025 82.0039 61.7539C83.9557 62.9571 86.3257 63.3488 88.5564 63.5167C93.3244 63.9084 98.1481 63.4887 102.832 64.496C105.509 65.0556 108.019 66.1189 110.11 67.8817C112.396 69.8124 114.32 72.1068 116.077 74.4852C117.834 76.8916 119.256 79.3819 120.678 82.0121C122.183 84.8102 123.856 87.2165 126.672 88.7835C129.07 90.1266 131.245 91.3297 133.002 93.5123C134.647 95.5549 135.902 97.8773 136.794 100.312C136.85 100.424 136.766 100.563 136.655 100.619C134.117 102.578 131.552 104.537 128.875 106.3C126.561 107.838 124.135 109.07 121.737 110.441C121.04 110.832 120.371 111.252 119.73 111.7L125.473 112.763L141.646 101.851C141.646 101.851 119.06 69.3927 117.025 66.8744Z" fill="#073C70"/>
<path d="M33.7383 53.1638C33.7383 53.1638 38.1996 50.0859 43.4973 48.9666C48.7951 47.8474 69.7909 49.3863 69.7909 49.3863C69.7909 49.3863 89.4205 46.7841 98.1479 48.9666C111.532 52.3243 116.467 65.979 124.358 71.911C129.934 76.1081 155.587 77.787 155.587 77.787L162 88.9794C162 88.9794 138.299 91.2178 127.983 82.3199C127.453 81.8722 119.2 68.5533 113.205 62.3975C109.162 58.2563 104.896 59.2356 104.896 59.2356C104.896 59.2356 102.191 56.9972 100.379 56.8013C92.5713 55.9619 87.2736 67.9937 71.1014 67.9937C61.0636 67.9937 54.1486 58.5361 54.1486 58.5361C54.1486 58.5361 51.0257 62.1177 44.6126 60.7186C38.1996 59.3196 33.7383 53.1638 33.7383 53.1638Z" fill="#E05432"/>
<path opacity="0.5" d="M155.587 77.787C155.587 77.787 129.935 76.1081 124.358 71.911C120.148 68.7491 116.802 63.4048 112.564 58.62C110.723 58.676 109.078 57.9485 107.572 56.8852C105.76 55.6261 104.143 54.1991 101.884 53.7234C99.2913 53.1917 96.6145 53.7234 94.105 54.3669C92.6551 54.7307 91.4004 55.3743 90.062 55.766C88.5842 56.5215 87.2179 57.3889 85.9353 58.5921C84.0393 60.3549 72.44 66.5386 69.9863 66.3428C65.7481 66.007 61.0637 64.0204 57.7178 61.0264C55.9611 59.4315 56.2679 56.1857 55.5708 53.8633C55.0689 52.1844 55.1804 50.3936 55.4035 48.6588C51.9739 48.5469 49.7154 56.0738 48.7673 57.1091C44.8637 61.3062 39.566 57.9485 33.7942 53.3037C34.3797 54.0871 38.6458 59.4595 44.5849 60.7466C50.998 62.1456 54.1209 58.5641 54.1209 58.5641C54.1209 58.5641 61.0637 67.9937 71.1016 67.9937C87.2737 67.9937 92.5715 55.9619 100.379 56.8013C102.191 56.9971 104.896 59.2356 104.896 59.2356C104.896 59.2356 109.134 58.2563 113.205 62.3975C119.2 68.5533 127.453 81.8442 127.983 82.3199C138.3 91.2178 162 88.9793 162 88.9793L155.587 77.787Z" fill="#992714"/>
<path d="M82.9239 19.3068L85.7122 17.628L88.5005 3.63751L86.2977 2.46231L79.0203 14.8299L82.9239 19.3068Z" fill="#093356"/>
<path d="M81.2509 40.0127C81.2509 40.0127 78.4626 55.682 69.2613 55.9618C60.0599 56.2417 49.1855 55.4022 45.8396 50.9253C42.4936 46.4483 41.6571 43.93 41.0995 40.0127C40.5418 36.0954 42.4379 28.9043 42.4379 28.9043L64.8 25.1828L81.2509 40.0127Z" fill="url(#paint3_linear)"/>
<path opacity="0.49" d="M48.4048 51.5968C50.5239 52.0725 53.5074 52.6601 55.5986 52.3243C60.032 51.6248 63.6568 50.3656 67.4768 47.7354C71.6035 44.8814 74.2802 39.7329 75.1725 34.5564L81.251 40.0407C81.251 40.0407 78.4627 55.71 69.2613 55.9898C60.0599 56.2696 49.1856 55.4302 45.8396 50.9532C45.7838 50.8973 45.756 50.8413 45.7002 50.7854C46.5924 51.0931 47.5126 51.4009 48.4048 51.5968Z" fill="#DD9C47"/>
<path d="M76.7897 14.8299C76.7897 14.5501 79.2991 2.79809 79.2991 2.79809L77.0685 0L74.0014 3.63752L68.9824 12.0318L76.7897 14.8299Z" fill="#093356"/>
<path d="M56.714 35.5358C56.714 35.5358 54.7622 36.655 52.8104 36.655C50.8586 36.655 48.3491 36.0954 48.3491 36.0954V36.655C48.3491 36.655 51.4163 37.2146 52.8104 37.2146C54.2046 37.2146 56.714 35.5358 56.714 35.5358Z" fill="#44392A"/>
<path d="M45.7002 51.0652L44.0272 52.744C44.0272 52.744 49.6038 58.8998 64.9394 59.7393C80.2751 60.5787 86.6882 54.4229 86.6882 54.4229C86.6882 54.4229 85.0152 40.4324 85.8517 33.9968C86.6882 27.5612 86.967 26.1622 87.2458 23.6439C87.5246 21.1256 85.8517 17.7679 85.8517 17.7679L81.9481 15.8092L86.6882 2.65819L83.0634 0.699523L78.0444 7.41494L74.4197 6.0159L77.0685 0L73.3043 0.419714C73.3043 0.419714 69.9584 5.73609 69.1219 6.57552C68.2854 7.41494 65.3577 10.6327 65.3577 10.6327C65.3577 10.6327 56.0169 9.65342 50.4403 14.69C44.8637 19.7265 42.3542 29.2401 42.3542 29.2401C42.3542 29.2401 45.7002 30.3593 46.5367 30.9189C47.3732 31.4785 49.0462 34.5564 49.0462 34.5564C49.0462 34.5564 53.2286 33.4372 56.2957 33.4372C59.3629 33.4372 69.6796 36.7949 72.189 38.4738C74.6985 40.1526 76.7897 41.9714 76.7897 41.9714C76.7897 41.9714 67.9229 56.4935 56.5746 54.9825C48.2097 53.8633 45.7002 51.0652 45.7002 51.0652ZM77.0685 10.0731C77.0685 10.0731 75.9532 13.151 75.9532 13.4308C75.9532 13.4308 74.8379 12.8712 73.7226 12.5914C72.6073 12.3116 70.0978 11.752 70.0978 11.752L73.1649 8.95389L77.0685 10.0731Z" fill="url(#paint4_linear)"/>
<path opacity="0.69" d="M78.9367 58.3122C79.0761 57.0531 78.2396 56.0738 77.4868 54.9825C76.1205 53.0238 75.5071 50.0858 76.7618 47.8754C77.7098 46.2245 79.6617 45.497 80.526 43.7622C81.5298 41.7475 81.4741 39.2292 81.7529 37.0467C82.0875 34.5564 82.7846 32.1221 82.6173 29.6038C82.4778 27.1415 81.6692 24.7911 81.1952 22.3847C80.8327 20.566 80.2472 19.027 79.0203 17.628C77.9608 16.3968 76.6503 15.3895 75.5071 14.2703C77.7098 14.7739 79.8847 15.5574 82.1154 15.8932L85.8517 17.7679C85.8517 17.7679 87.5247 21.1256 87.2458 23.6439C86.967 26.1622 86.6882 27.5612 85.8517 33.9968C85.0152 40.4324 86.6882 54.4229 86.6882 54.4229C86.6882 54.4229 84.2902 56.7173 78.9367 58.3122Z" fill="#073C70"/>
<path d="M71.492 25.7425C71.492 25.7425 69.4565 25.2108 67.3095 24.6232C65.6087 24.1475 63.1271 22.9444 61.1753 23.2242C57.0207 23.8118 54.7622 26.3021 54.7622 26.3021C54.7622 26.3021 56.9928 32.1781 62.5694 32.1781C70.3767 32.1781 71.492 25.7425 71.492 25.7425Z" fill="white"/>
<path d="M50.5796 25.7425C50.5796 25.7425 50.5796 22.1049 49.4643 20.7059C48.349 19.3068 47.2337 19.027 47.2337 19.027C47.2337 19.027 45.5607 21.2655 45.003 22.3848C44.4454 23.504 43.8877 25.7425 43.8877 25.7425C43.8877 25.7425 46.1183 27.1415 47.2337 26.8617C48.349 26.5819 50.5796 25.7425 50.5796 25.7425Z" fill="white"/>
<g opacity="0.69">
<path opacity="0.69" d="M26.9349 91.5256C26.6282 88.4477 26.3493 83.4111 27.0464 78.3466C27.855 72.5265 29.5001 64.7199 30.3645 60.7466C25.7359 64.6639 24.4812 71.6591 24.1745 77.4512C23.8678 83.1873 23.1149 90.4903 18.3469 94.3796C22.2784 95.6947 22.2227 100.787 21.2746 104.677C23.3659 105.992 24.5369 107.167 24.5369 107.167L26.2099 98.213L26.7118 98.8006V98.7167L22.864 94.0159L26.9349 91.5256Z" fill="#073C70"/>
<path opacity="0.69" d="M27.3253 94.5755C27.3253 94.5755 27.2416 94.1558 27.158 93.4003C27.2137 93.7921 27.2695 94.2397 27.3253 94.6595V94.5755Z" fill="#073C70"/>
<path opacity="0.69" d="M26.9348 91.5256C27.0185 92.2811 27.0742 92.8967 27.1579 93.4003C27.0463 92.449 26.9627 91.6375 26.9348 91.5256Z" fill="#073C70"/>
<path opacity="0.69" d="M27.6041 96.5342C27.5205 96.0865 27.4089 95.387 27.3253 94.6595L26.7397 98.7167L28.1897 100.452C28.1618 100.452 27.8829 97.9332 27.6041 96.5342Z" fill="#073C70"/>
</g>
<path d="M36.0247 122.221L38.0601 125.914C38.0601 125.914 40.9878 127.033 53.2563 127.313C65.5248 127.593 84.4853 125.215 84.4853 125.215L84.2064 122.277C84.2064 122.277 58.3868 123.508 49.4085 123.592C40.4302 123.676 36.0247 122.221 36.0247 122.221Z" fill="#F8E28F"/>
<path d="M52.141 130.671L58.5541 122.277H46.5645L52.141 130.671Z" fill="#F8E28F"/>
<path d="M35.4391 78.4026C35.4391 78.4026 39.6216 80.1654 42.9118 78.4026C46.202 76.6398 49.046 73.338 49.046 73.338C49.046 73.338 51.667 78.1787 55.8495 80.3892C60.0319 82.5997 65.497 81.9281 65.497 81.9281C65.497 81.9281 62.4298 90.966 60.6732 95.5828C58.9166 100.2 56.2956 107.027 47.0663 106.607C37.8371 106.16 34.5469 96.0305 34.5469 91.6375C34.5469 87.2445 35.4391 78.4026 35.4391 78.4026Z" fill="white"/>
<path d="M36.8612 80.5011C36.8612 80.5011 40.4581 82.0121 43.3022 80.5011C46.1463 78.9902 48.6 76.1361 48.6 76.1361C48.6 76.1361 50.8585 80.3053 54.4554 82.208C58.0523 84.1107 62.7924 83.5231 62.7924 83.5231C62.7924 83.5231 60.1435 91.3018 58.6378 95.303C57.1321 99.2763 54.8457 105.18 46.8991 104.789C38.9525 104.397 36.1084 95.6668 36.1084 91.8894C36.1084 88.1119 36.8612 80.5011 36.8612 80.5011Z" fill="#194D82"/>
<path d="M53.6746 103.501L47.4846 102.774L47.3173 94.2678H44.6963L44.7521 102.774L39.2034 101.767C39.2034 101.767 39.287 95.1352 39.6495 90.5463C40.012 85.9574 40.96 81.2846 40.96 81.2846L46.2299 81.7323L44.9194 89.2312L48.2096 89.6789L49.5201 81.7043H55.2918C55.2918 81.7043 54.1765 86.573 53.7025 92.7568C53.2285 98.9406 53.6746 103.501 53.6746 103.501Z" fill="white"/>
<path d="M0.557617 100.452C0.557617 100.452 10.3167 99.696 15.6144 101.571C20.9122 103.445 24.2581 106.048 24.2581 106.048L26.2099 98.213L28.1617 100.452C28.1617 100.452 29.5559 107.447 31.3125 112.763C33.097 118.219 40.4302 130.111 40.4302 130.111C40.4302 130.111 36.5266 130.951 35.1325 131.231C33.7383 131.51 31.5077 130.391 31.5077 129.831C31.5077 129.272 34.0172 128.153 34.0172 128.153V124.795L32.623 122.277C32.623 122.277 27.2416 120.766 22.5852 118.639C15.8932 115.561 0.557617 100.452 0.557617 100.452Z" fill="#E05432"/>
<path opacity="0.5" d="M31.3126 112.763C29.556 107.447 28.1618 100.452 28.1618 100.452L26.21 98.213L24.4534 105.236C24.7322 105.376 25.0389 105.516 25.3177 105.656C26.684 106.411 27.9666 107.335 28.8589 108.622C29.8627 110.077 29.9742 111.784 30.2809 113.463C30.7549 116.093 33.5153 119.479 32.6231 122.249L34.0172 124.767V128.125C34.0172 128.125 31.5078 129.244 31.5078 129.803C31.5078 130.363 33.7384 131.482 35.1325 131.203C36.5267 130.923 40.4303 130.083 40.4303 130.083C40.4303 130.083 33.0971 118.219 31.3126 112.763Z" fill="#992714"/>
<path d="M105.119 176L96.754 166.766C96.754 166.766 93.9935 160.415 91.9581 155.098C91.2889 156.19 90.5639 157.253 89.8111 158.288C89.6996 158.428 89.5044 158.484 89.365 158.344C87.6362 156.749 85.3498 156.385 83.0913 156.329C83.175 156.805 83.2586 157.393 83.3423 158.092C84.0393 163.632 89.1977 168.725 89.1977 168.725L88.9188 173.762L105.119 176Z" fill="#E05432"/>
<path opacity="0.5" d="M91.4561 160.107C91.958 161.618 92.432 163.157 92.8782 164.696C93.0455 165.283 93.157 165.899 93.2964 166.487C93.5195 167.466 93.7704 167.774 94.7185 168.277C95.778 168.837 96.6703 169.341 97.3673 170.376C98.3154 171.803 98.1481 173.426 97.6462 174.965L105.119 176L96.7539 166.766C96.7539 166.766 93.9935 160.415 91.958 155.098C91.4283 155.938 90.8985 156.749 90.3408 157.533C90.7312 158.4 91.1494 159.211 91.4561 160.107Z" fill="#992714"/>
<path d="M47.7635 157.645C46.4809 157.365 45.1982 157.225 43.8878 157.421C42.6609 157.617 40.9043 158.064 39.9563 158.904C39.8447 159.016 39.6774 159.016 39.5659 158.904C38.8131 158.092 38.3669 157.113 37.8093 156.162C37.5862 155.77 37.3631 155.406 37.1122 155.014C35.8575 160.331 34.5748 166.207 34.5748 166.207L26.21 174.881L42.6609 172.362L41.8244 168.165C41.8244 168.165 45.728 162.849 47.1222 159.771C47.4289 159.1 47.6241 158.372 47.7635 157.645Z" fill="#E05432"/>
<path opacity="0.5" d="M47.7635 157.645C46.4809 157.365 45.1982 157.225 43.8878 157.421C43.8599 157.421 43.8599 157.421 43.832 157.421C43.4137 159.072 43.2743 160.638 43.2743 162.373C43.2743 164.976 41.6571 167.438 39.0361 167.997C39.3707 169.872 37.4468 170.852 35.969 171.607C33.5711 172.866 31.2289 172.866 28.6358 172.698L26.21 174.881L42.6609 172.362L41.8244 168.165C41.8244 168.165 45.728 162.849 47.1222 159.771C47.4289 159.1 47.6241 158.372 47.7635 157.645Z" fill="#992714"/>
<path d="M90.6197 128.153C91.4562 127.033 87.5526 125.914 87.5526 125.914L88.3891 121.997C88.3891 121.997 89.5044 122.556 90.6197 121.997C91.735 121.437 93.1292 119.758 93.1292 119.758C93.1292 119.758 98.4269 121.437 103.725 121.157C109.022 120.878 131.886 116.121 131.886 116.121C131.886 116.121 122.406 111.084 118.781 110.525C115.157 109.965 108.465 109.685 108.465 109.685L111.253 101.571C111.253 101.571 97.3116 109.405 92.8503 111.924C88.3891 114.442 83.0913 118.359 83.0913 121.437C83.0913 124.515 85.0431 127.313 86.7161 128.153C88.3891 128.992 90.6197 128.153 90.6197 128.153Z" fill="#E05432"/>
<path opacity="0.5" d="M118.781 110.525C118.447 110.469 118.084 110.413 117.694 110.385C117.053 110.944 116.411 111.532 115.77 112.092C114.515 113.211 113.344 114.33 111.894 115.197C110.444 116.065 108.855 116.764 107.294 117.436C103.92 118.863 100.462 118.835 96.9491 117.94C96.3357 117.8 95.8059 117.576 95.2203 117.324C94.1329 116.904 93.4637 117.072 92.5993 117.912C91.3167 119.115 89.811 120.234 89.6716 122.109C90.0341 122.137 90.3687 122.109 90.6196 121.997C91.735 121.437 93.1291 119.758 93.1291 119.758C93.1291 119.758 98.4269 121.437 103.725 121.157C109.022 120.878 131.886 116.121 131.886 116.121C131.886 116.121 122.406 111.084 118.781 110.525Z" fill="#992714"/>
<defs>
<linearGradient id="paint0_linear" x1="26.21" y1="170.544" x2="140.809" y2="170.544" gradientUnits="userSpaceOnUse">
<stop offset="0.00506811"/>
<stop offset="1" stop-opacity="0.2"/>
</linearGradient>
<linearGradient id="paint1_linear" x1="85.0158" y1="152.026" x2="42.1741" y2="148.306" gradientUnits="userSpaceOnUse">
<stop offset="0.00506811" stop-color="#003B7C"/>
<stop offset="1" stop-color="#1F77BF"/>
</linearGradient>
<linearGradient id="paint2_linear" x1="117.737" y1="93.1923" x2="54.6305" y2="89.1243" gradientUnits="userSpaceOnUse">
<stop offset="0.00506811" stop-color="#003B7C"/>
<stop offset="1" stop-color="#1F77BF"/>
</linearGradient>
<linearGradient id="paint3_linear" x1="70.3406" y1="44.5252" x2="47.8487" y2="35.8441" gradientUnits="userSpaceOnUse">
<stop offset="0.00506811" stop-color="#F7C172"/>
<stop offset="1" stop-color="#FFD99C"/>
</linearGradient>
<linearGradient id="paint4_linear" x1="91.5108" y1="40.0088" x2="67.4096" y2="29.0921" gradientUnits="userSpaceOnUse">
<stop offset="0.00506811" stop-color="#003B7C"/>
<stop offset="1" stop-color="#1F77BF"/>
</linearGradient>
</defs>
</svg>
