<svg xmlns="http://www.w3.org/2000/svg" viewBox="0 0 324 500"><path d="M324 332.3L171.7 0h-21.4L-.5 332.3l62.9 103.2h.6v65.1h197.4v-65.1L324 332.3zM64.2 402.7l-42.8-70.4 42.8-94.6 87.7-189v261.2c-5.8 3.4-9.9 9.5-9.9 16.7 0 10.9 8.8 19.7 19.7 19.7 10.9 0 19.7-8.8 19.7-19.7 0-7.2-4.1-13.3-9.9-16.7V48.8L302 332.3l-63.8 103.1H84.6l-20.4-32.7zm176.5 65.8v12.3H82.8v-25.7H240.7v13.4z"/><path fill="#72C02C" d="M240.7 468.5v12.3H82.8v-25.7H240.7z"/><path fill="#FFF" d="M64.2 402.7l-42.8-70.4 42.8-94.6 87.7-189v261.2c-5.8 3.4-9.9 9.5-9.9 16.7 0 10.9 8.8 19.7 19.7 19.7 10.9 0 19.7-8.8 19.7-19.7 0-7.2-4.1-13.3-9.9-16.7V48.8L302 332.3l-63.8 103.1H84.6l-20.4-32.7z"/></svg>