<svg id="acklendesign-logo" xmlns="http://www.w3.org/2000/svg" viewBox="0 0 230 50">
	<path d="M17.2 10.5h3.4l7.2 17H24l-1.5-3.8h-7.1l-1.5 3.8H10l7.2-17zm3.9 9.9l-2.2-5.5-2.2 5.5h4.4zm7.6-1.3c0-4.8 3.6-8.8 8.8-8.8 3.2 0 5.1 1.1 6.7 2.6l-2.4 2.7c-1.3-1.2-2.6-1.9-4.3-1.9-2.8 0-4.9 2.4-4.9 5.2 0 2.9 2 5.3 4.9 5.3 1.9 0 3.1-.8 4.4-2l2.4 2.4c-1.7 1.9-3.7 3-6.9 3-5.1.1-8.7-3.7-8.7-8.5zm18.5-8.5h3.7V18l6.8-7.4h4.5l-6.9 7.2 7.2 9.7H58l-5.2-7.2-2 2v5.2h-3.7V10.6zm17.6 0h3.7v13.5h8.4v3.4H64.8V10.6zm14.9 0h12.7v3.3h-9v3.4h8v3.3h-8v3.5h9.2v3.3H79.7V10.6z"/>
	<path d="M148.8 19.3h8.7v-1h-8.7v-6.7h9.8v-.9h-10.9v16.7h11.2v-.9h-10.1zM170.6 19.3c-.7-.3-1.6-.6-2.8-1-1-.3-1.8-.6-2.4-.9-.6-.3-1.1-.6-1.5-1.1-.4-.5-.6-1.1-.6-1.9 0-.9.4-1.6 1.2-2.1.8-.5 1.9-.8 3.2-.8.8 0 1.5.1 2.3.3s1.5.5 2.1.9l.5-.9c-.6-.4-1.4-.7-2.2-1-.9-.2-1.7-.4-2.6-.4-1.1 0-2.1.2-2.9.5s-1.5.8-1.9 1.4c-.5.6-.7 1.3-.7 2.1 0 1 .2 1.8.7 2.4.5.6 1 1.1 1.7 1.4s1.6.6 2.7 1c1 .3 1.8.6 2.5.9.6.3 1.1.7 1.5 1.1.4.5.6 1.1.6 1.9 0 1-.4 1.8-1.3 2.4-.8.6-2 .9-3.5.9-1 0-2-.2-3-.6-1-.4-1.8-1-2.5-1.7l-.5.9c.7.7 1.6 1.3 2.7 1.8s2.2.7 3.3.7c1.2 0 2.2-.2 3.1-.5.9-.4 1.6-.9 2-1.5.5-.7.7-1.4.7-2.3 0-1-.2-1.8-.7-2.4-.4-.7-1-1.2-1.7-1.5zM177.6 10.7h1v16.8h-1zM187.5 12.5c1.2-.7 2.5-1 3.9-1 1 0 2 .2 2.9.5.9.4 1.7.8 2.4 1.5l.6-.7c-.8-.7-1.7-1.3-2.7-1.6-1-.4-2.1-.6-3.2-.6-1.6 0-3 .4-4.4 1.1s-2.4 1.8-3.2 3.1-1.2 2.7-1.2 4.2.4 3 1.2 4.3c.8 1.3 1.8 2.3 3.2 3.1 1.3.8 2.8 1.2 4.3 1.2 1.1 0 2.2-.2 3.2-.6 1-.4 2-.9 2.7-1.6v-6.1h-.9v5.6c-.7.6-1.5 1-2.3 1.3s-1.8.5-2.7.5c-1.4 0-2.7-.3-3.9-1-1.2-.7-2.1-1.6-2.8-2.7-.7-1.2-1-2.4-1-3.8s.3-2.6 1-3.8c.8-1.3 1.7-2.2 2.9-2.9zM215 10.7v15.2l-11.2-15.2h-1.2v16.7h1V12.2l11.2 15.2h1.2V10.7zM139.5 11.8c-1.3-.7-2.8-1.1-4.3-1.1h-6.7v7.2l1 2.2v-8.4h5.6c1.4 0 2.7.3 3.8 1 1.2.7 2.1 1.6 2.8 2.7.7 1.1 1 2.4 1 3.7 0 1.3-.3 2.6-1 3.7s-1.6 2-2.8 2.7c-1.2.7-2.4 1-3.8 1h-2.7l.5 1h2.3c1.6 0 3-.4 4.3-1.1 1.3-.7 2.4-1.8 3.1-3s1.2-2.7 1.2-4.2-.4-2.9-1.2-4.2-1.8-2.5-3.1-3.2z" fill="#72c02c"/>
	<path d="M127.9 27.4l-7.7-16.8h-1.1l-7.6 16.8 3.2 5.2V36h10.1V32.7l3.1-5.3zM114.8 31l-2.2-3.6 2.2-4.8 4.4-9.6v13.2c-.3.2-.5.5-.5.8 0 .6.4 1 1 1s1-.4 1-1c0-.4-.2-.7-.5-.8V13.1l6.6 14.4-3.2 5.2h-7.8l-1-1.7zm8.9 3.3v.7H115.8V33.7h7.9v.6zM95.8 10.6h3.5l7.9 10.4V10.6h3.6v7.8l-3.7 8.3-7.6-10v10.7h-3.7z"/>
	<path d="M123.7 34.3v.7h-8V33.7h8z" fill="#72c02c"/>
</svg>