<svg width="573" height="194" viewBox="0 0 573 194" fill="none" xmlns="http://www.w3.org/2000/svg">
<path d="M88.5394 29.9362C88.5394 29.9362 98.2286 43.4827 115.435 51.3431C132.642 59.5379 145.004 61.712 145.004 61.712V101.348C145.004 163.729 88.5394 164.9 88.5394 164.9C88.5394 164.9 32.0747 164.064 32.0747 101.348V61.712C32.0747 61.712 44.1027 59.7052 61.6435 51.3431C79.0173 43.4827 88.5394 29.9362 88.5394 29.9362ZM91.8805 146.169H114.934V60.2069H91.8805V90.4776H80.6878V60.2069H57.6342V146.002H80.6878V111.717H91.8805V146.169Z" fill="black"/>
<path d="M178.081 50.8414H190.61V87.3H208.986V50.8414H221.515V143.995H208.986V98.1707H190.61V144.329H178.081V50.8414Z" fill="black"/>
<path d="M232.04 50.8414H265.284V61.7121H244.569V91.1465H262.945V101.683H244.569V133.459H265.284V143.995H232.04V50.8414Z" fill="black"/>
<path d="M273.303 50.8414H289.674C296.356 50.8414 301.702 52.681 304.876 55.8586C309.053 60.0396 311.391 66.3948 311.391 75.2586C311.391 81.9483 310.222 87.3 308.217 91.481C305.879 95.6621 303.039 98.0034 298.528 99.1741L315.401 144.497H302.872L285.832 99.0069V144.497H273.303V50.8414ZM285.665 92.3172C290.676 92.3172 293.851 91.1465 295.855 88.8052C297.86 86.4638 298.862 82.6172 298.862 77.2655C298.862 74.2552 298.528 71.9138 298.194 69.9069C297.86 67.9 297.025 66.0603 296.189 64.8896C295.354 63.719 294.185 62.5483 292.681 61.8793C291.178 61.2103 289.507 61.0431 287.669 61.0431H285.665V92.3172Z" fill="black"/>
<path d="M367.188 100.01C367.188 116.4 365.35 128.274 361.675 134.964C358.167 141.988 351.986 145.333 343.299 145.333C334.278 145.333 327.763 141.486 324.255 134.128C320.746 126.769 318.742 113.891 318.742 95.3276C318.742 78.9379 320.579 67.0638 324.255 60.0397C327.763 53.0155 334.111 49.6707 342.631 49.6707C350.482 49.6707 355.995 52.3465 359.837 57.531C362.176 61.0431 364.181 66.3948 365.35 72.75C366.52 79.4396 367.188 88.1362 367.188 100.01ZM354.325 101.181C354.325 84.9586 353.656 74.4224 352.32 69.0707C350.816 63.719 347.976 61.2103 343.466 61.2103C338.955 61.2103 336.115 63.5517 334.612 68.569C333.108 73.5862 332.607 83.2862 332.607 98.3379C332.607 111.884 333.443 121.584 334.946 126.769C336.45 131.786 339.29 134.128 343.8 134.128C347.809 134.128 350.816 131.786 352.654 127.103C353.489 122.253 354.325 113.724 354.325 101.181Z" fill="black"/>
<path d="M376.209 50.3397H388.404V116.233C388.404 122.922 389.072 127.438 390.241 129.779C391.411 132.121 394.084 132.957 397.592 132.957C401.1 132.957 403.773 132.121 404.942 129.947C406.112 127.772 406.78 124.093 406.78 117.905V50.3397H418.975V117.905C418.975 128.274 417.471 134.964 414.297 138.476C410.455 142.657 404.942 144.664 397.258 144.664C388.738 144.664 382.891 141.988 379.717 136.803C377.378 133.291 376.209 126.267 376.209 116.233V50.3397V50.3397Z" fill="black"/>
<path d="M439.69 72.2483L440.191 76.5965L440.859 85.9621L441.527 97.5017C441.527 98.1707 441.527 99.0069 441.527 99.8431C441.527 100.679 441.527 101.85 441.527 103.021L442.196 143.66H429.834V50.8414H429.5H441.193L453.723 88.1362C457.231 98.6724 460.405 109.878 463.412 121.584C462.576 114.226 461.741 107.703 461.073 101.85C460.405 95.9965 460.405 90.3103 460.405 85.4603V50.8414H472.934V143.995H461.24L447.374 102.017C446.205 98.1707 444.702 94.1569 443.866 89.9758C442.697 85.7948 441.527 81.4465 440.692 77.0983L439.69 72.2483Z" fill="black"/>
<path d="M483.625 50.8414H496.155V143.995H483.625V50.8414Z" fill="black"/>
<path d="M501.667 50.8414H542.262V61.7121H528.229V143.995H515.867V61.7121H501.5V50.8414H501.667Z" fill="black"/>
<path d="M194.954 168.898H196.958L188.773 151.003H186.935L178.749 168.898H180.754L182.926 164.048H192.949L194.954 168.898ZM183.594 162.543L187.937 153.01L192.281 162.543H183.594ZM206.313 155.352C203.975 155.352 202.137 156.355 201.135 157.86V155.519H199.464V168.898H201.302V161.874C201.302 158.864 203.139 157.024 205.979 157.024C208.485 157.024 209.989 158.529 209.989 161.372V168.898H211.826V161.038C211.826 157.191 209.655 155.352 206.313 155.352ZM237.219 168.898H239.223L231.038 151.003H229.2L221.014 168.898H223.019L225.191 164.048H235.214L237.219 168.898ZM225.859 162.543L230.202 153.01L234.546 162.543H225.859ZM247.242 169.066C249.581 169.066 251.418 168.229 252.421 166.39L251.084 165.553C250.249 166.891 248.745 167.56 247.242 167.56C244.235 167.56 242.23 165.553 242.23 162.376C242.23 159.198 244.402 157.191 247.242 157.191C248.745 157.191 250.249 157.86 251.084 159.198L252.421 158.195C251.418 156.355 249.414 155.519 247.242 155.519C243.233 155.519 240.393 158.362 240.393 162.376C240.226 166.222 243.233 169.066 247.242 169.066ZM266.119 168.898H268.291L261.943 161.038L267.623 155.519H265.618L257.599 162.878V150H255.762V168.898H257.599V165.052L260.773 162.209L266.119 168.898ZM271.131 168.898H272.968V150H271.131V168.898ZM289.674 162.209C289.674 158.195 287.001 155.352 283.159 155.352C279.317 155.352 276.644 158.195 276.644 162.209C276.644 166.222 279.484 169.066 283.66 169.066C285.832 169.066 287.669 168.229 288.839 166.891L287.836 165.721C286.834 166.891 285.331 167.56 283.66 167.56C280.653 167.56 278.648 165.721 278.314 162.878H289.507C289.674 162.543 289.674 162.376 289.674 162.209ZM283.159 156.857C285.832 156.857 287.669 158.697 288.003 161.372H278.481C278.648 158.697 280.486 156.857 283.159 156.857ZM300.199 155.352C297.86 155.352 296.022 156.355 295.02 157.86V155.519H293.349V168.898H295.187V161.874C295.187 158.864 297.024 157.024 299.864 157.024C302.37 157.024 303.874 158.529 303.874 161.372V168.898H305.711V161.038C305.711 157.191 303.373 155.352 300.199 155.352ZM330.937 168.898H332.941L324.756 151.003H322.918L314.732 168.898H316.737L318.909 164.048H328.932L330.937 168.898ZM319.577 162.543L323.92 153.01L328.264 162.543H319.577ZM344.301 155.519L339.289 166.891L334.278 155.519H332.44L338.454 168.898H340.292L346.306 155.519H344.301ZM360.004 162.209C360.004 158.195 357.331 155.352 353.489 155.352C349.647 155.352 346.974 158.195 346.974 162.209C346.974 166.222 349.814 169.066 353.99 169.066C356.162 169.066 358 168.229 359.169 166.891L358.167 165.721C357.164 166.891 355.661 167.56 353.99 167.56C350.983 167.56 348.979 165.721 348.645 162.878H359.837C360.004 162.543 360.004 162.376 360.004 162.209ZM353.489 156.857C356.162 156.857 358 158.697 358.334 161.372H348.812C348.979 158.697 350.816 156.857 353.489 156.857ZM370.529 155.352C368.19 155.352 366.352 156.355 365.35 157.86V155.519H363.68V168.898H365.517V161.874C365.517 158.864 367.355 157.024 370.195 157.024C372.701 157.024 374.204 158.529 374.204 161.372V168.898H376.042V161.038C376.042 157.191 373.703 155.352 370.529 155.352ZM391.244 155.519V162.543C391.244 165.553 389.406 167.393 386.733 167.393C384.227 167.393 382.724 165.888 382.724 163.045V155.519H380.886V163.379C380.886 167.226 383.058 169.066 386.566 169.066C388.738 169.066 390.408 168.062 391.411 166.557V169.066H393.081V155.686H391.244V155.519ZM409.787 162.209C409.787 158.195 407.114 155.352 403.272 155.352C399.429 155.352 396.757 158.195 396.757 162.209C396.757 166.222 399.596 169.066 403.773 169.066C405.945 169.066 407.782 168.229 408.952 166.891L407.949 165.721C406.947 166.891 405.443 167.56 403.773 167.56C400.766 167.56 398.761 165.721 398.427 162.878H409.62C409.787 162.543 409.787 162.376 409.787 162.209ZM403.272 156.857C405.945 156.857 407.782 158.697 408.116 161.372H398.594C398.761 158.697 400.766 156.857 403.272 156.857ZM428.33 169.066C431.003 169.066 433.342 168.229 434.845 166.39L433.676 165.219C432.172 166.724 430.502 167.393 428.33 167.393C423.987 167.393 420.813 164.216 420.813 160.034C420.813 155.853 423.987 152.676 428.33 152.676C430.335 152.676 432.172 153.345 433.676 154.85L434.845 153.679C433.342 152.007 430.836 151.003 428.33 151.003C422.984 151.003 418.975 154.85 418.975 160.034C418.975 165.219 422.984 169.066 428.33 169.066ZM443.365 169.066C447.207 169.066 450.214 166.222 450.214 162.209C450.214 158.195 447.374 155.352 443.365 155.352C439.356 155.352 436.516 158.195 436.516 162.209C436.516 166.222 439.356 169.066 443.365 169.066ZM443.365 167.393C440.525 167.393 438.353 165.219 438.353 162.209C438.353 159.198 440.525 157.024 443.365 157.024C446.205 157.024 448.377 159.198 448.377 162.209C448.377 165.219 446.205 167.393 443.365 167.393ZM470.595 155.352C468.089 155.352 466.252 156.522 465.249 158.195C464.414 156.355 462.743 155.352 460.405 155.352C458.233 155.352 456.395 156.355 455.56 157.86V155.519H453.889V168.898H455.727V161.874C455.727 158.864 457.565 157.024 460.238 157.024C462.743 157.024 464.08 158.529 464.08 161.372V168.898H465.917V161.874C465.917 158.864 467.588 157.024 470.428 157.024C472.934 157.024 474.27 158.529 474.27 161.372V168.898H476.108V161.038C475.941 157.191 473.769 155.352 470.595 155.352ZM487.802 155.352C485.63 155.352 483.792 156.355 482.623 158.028V155.519H480.952V173.916H482.79V166.39C483.959 168.062 485.797 169.066 487.969 169.066C491.811 169.066 494.651 166.39 494.651 162.209C494.484 158.195 491.644 155.352 487.802 155.352ZM487.635 167.393C484.795 167.393 482.623 165.219 482.623 162.209C482.623 159.031 484.795 157.024 487.635 157.024C490.475 157.024 492.646 159.198 492.646 162.209C492.646 165.386 490.475 167.393 487.635 167.393ZM502.837 155.352C500.665 155.352 498.66 156.021 497.324 157.191L498.159 158.529C499.329 157.526 500.832 157.024 502.67 157.024C505.175 157.024 506.512 158.195 506.512 160.536V161.372H502.336C498.493 161.372 497.157 163.045 497.157 165.219C497.157 167.56 498.994 169.066 502.001 169.066C504.173 169.066 505.844 168.229 506.679 166.891V169.066H508.35V160.703C508.182 157.024 506.178 155.352 502.837 155.352ZM502.168 167.56C499.997 167.56 498.827 166.557 498.827 165.052C498.827 163.714 499.663 162.71 502.336 162.71H506.512V164.884C505.677 166.557 504.173 167.56 502.168 167.56ZM519.876 155.352C517.538 155.352 515.7 156.355 514.698 157.86V155.519H513.027V168.898H514.865V161.874C514.865 158.864 516.702 157.024 519.542 157.024C522.048 157.024 523.552 158.529 523.552 161.372V168.898H525.389V161.038C525.389 157.191 523.217 155.352 519.876 155.352ZM539.589 155.519L534.577 166.891L529.566 155.519H527.728L533.742 168.898L533.074 170.236C532.238 171.909 531.57 172.41 530.234 172.41C529.231 172.41 528.396 172.076 527.728 171.407L526.893 172.745C527.728 173.581 528.897 173.916 530.234 173.916C532.071 173.916 533.575 173.079 534.744 170.403L541.427 155.352H539.589V155.519Z" fill="black"/>
</svg>
