<svg width="343" height="116" viewBox="0 0 343 116" fill="none" xmlns="http://www.w3.org/2000/svg">
<path fill-rule="evenodd" clip-rule="evenodd" d="M53.025 17.9273C53.025 17.9273 58.8 26.0122 69.125 30.7576C79.45 35.6788 86.8 36.9091 86.8 36.9091V60.6364C86.8 97.897 53.025 98.6 53.025 98.6C53.025 98.6 19.25 98.0728 19.25 60.6364V36.9091C19.25 36.9091 26.425 35.6788 36.925 30.7576C47.25 26.0122 53.025 17.9273 53.025 17.9273ZM54.95 87.3515H68.775V36.0303H54.95V54.1333H48.3V36.0303H34.475V87.3515H48.3V66.7879H54.95V87.3515Z" fill="#DE5539"/>
<path d="M106.575 30.4061H114.1V52.2H125.125V30.4061H132.65V86.1212H125.125V58.703H114.1V86.297H106.575V30.4061V30.4061Z" fill="#DE5539"/>
<path d="M138.95 30.4061H158.9V36.9091H146.475V54.4849H157.5V60.8121H146.475V79.794H158.9V86.1212H138.95V30.4061Z" fill="#DE5539"/>
<path d="M163.625 30.4061H173.425C177.45 30.4061 180.6 31.4606 182.525 33.3939C184.975 35.8546 186.375 39.7212 186.375 44.9939C186.375 49.0364 185.675 52.2 184.45 54.6606C183.05 57.1212 181.3 58.5273 178.675 59.2303L188.825 86.297H181.3L171.15 59.0546V86.297H163.625V30.4061V30.4061ZM170.975 55.1879C173.95 55.1879 175.875 54.4849 177.1 53.0788C178.325 51.6727 178.85 49.3879 178.85 46.2243C178.85 44.4667 178.675 43.0606 178.5 41.8303C178.325 40.6 177.8 39.5455 177.275 38.8424C176.75 38.1394 176.05 37.4364 175.175 37.0849C174.3 36.7333 173.25 36.5576 172.2 36.5576H170.975V55.1879V55.1879Z" fill="#DE5539"/>
<path d="M219.8 59.7576C219.8 69.6 218.75 76.6303 216.475 80.6728C214.375 84.8909 210.7 86.8243 205.45 86.8243C200.025 86.8243 196.175 84.5394 194.075 80.1455C191.975 75.7515 190.75 68.0182 190.75 56.9455C190.75 47.1031 191.8 40.0728 194.075 35.8546C196.175 31.6364 200.025 29.7031 205.1 29.7031C209.825 29.7031 213.15 31.2849 215.425 34.4485C216.825 36.5576 218.05 39.7212 218.75 43.5879C219.45 47.4546 219.8 52.7273 219.8 59.7576ZM212.1 60.4606C212.1 50.794 211.75 44.4667 210.875 41.3031C210 38.1394 208.25 36.5576 205.625 36.5576C203 36.5576 201.25 37.9637 200.375 40.9515C199.5 43.9394 199.15 49.7394 199.15 58.7031C199.15 66.7879 199.675 72.5879 200.55 75.7515C201.425 78.7394 203.175 80.1455 205.8 80.1455C208.25 80.1455 210 78.7394 211.05 75.9273C211.575 73.1152 212.1 68.0182 212.1 60.4606Z" fill="#DE5539"/>
<path d="M225.225 30.0545H232.575V69.4242C232.575 73.4666 232.925 76.103 233.625 77.509C234.325 78.9151 235.9 79.4424 238 79.4424C240.1 79.4424 241.675 78.9151 242.375 77.6848C243.075 76.4545 243.425 74.1696 243.425 70.4787V30.0545H250.775V70.4787C250.775 76.6303 249.9 80.6727 247.975 82.7818C245.7 85.2424 242.375 86.4727 237.825 86.4727C232.75 86.4727 229.25 84.8909 227.325 81.7272C225.925 79.6181 225.225 75.4 225.225 69.4242V30.0545V30.0545Z" fill="#DE5539"/>
<path d="M257.075 30.4061H264.075L271.6 52.7273C273.7 59.0546 275.625 65.7333 277.375 72.7636C276.85 68.3697 276.325 64.503 275.975 60.9879C275.625 57.4727 275.625 54.1333 275.625 51.1455V30.4061H283.15V86.1212H276.15L267.75 60.9879C267.05 58.703 266.175 56.2424 265.65 53.7818C264.95 51.3212 264.25 48.6849 263.725 46.0485C263.725 45.697 263.55 45.3455 263.55 44.8182C263.375 44.2909 263.375 43.7636 263.2 43.2364C263.2 43.9394 263.375 44.4667 263.375 44.8182C263.375 45.3455 263.375 45.697 263.55 45.8727L263.9 51.497L264.25 58.3515C264.25 58.703 264.25 59.2303 264.25 59.7576C264.25 60.2849 264.25 60.9879 264.25 61.6909L264.6 85.9455H257.25V30.4061H257.075Z" fill="#DE5539"/>
<path d="M289.45 30.4061H296.975V86.1212H289.45V30.4061Z" fill="#DE5539"/>
<path d="M300.3 30.4061H324.625V36.9091H316.225V86.1212H308.875V36.9091H300.3V30.4061Z" fill="#DE5539"/>
</svg>
